<svg width="480" height="625" margin-top="100px" viewBox="0 0 480 625" fill="none" xmlns="http://www.w3.org/2000/svg">
<rect width="480" height="625" fill="#F8FAFF"/>
<path d="M230.033 240.033H150.291V160.292" fill="#72A8FE"/>
<path d="M150.291 240.033H230.033V160.292" fill="#0361FB"/>
<path d="M286.517 253.323L243.323 333.065H329.71L286.517 253.323Z" fill="#0361FB"/>
<path d="M286.517 160.292L243.323 240.033H329.71L286.517 160.292Z" fill="#72A8FE"/>
<path d="M230.033 253.323H150.291V275.917H230.033V253.323Z" fill="#72A8FE"/>
<path d="M230.033 310.469H150.291V333.063H230.033V310.469Z" fill="#72A8FE"/>
<path d="M177.112 393.416V398.664H122.52V393.416H146.648V387.784H126.424V365.32H132.696V371.592H166.936V365.32H173.144V387.784H152.92V393.416H177.112ZM132.696 382.792H166.936V376.392H132.696V382.792ZM125.848 403.784H173.272V419.72H166.872V408.968H125.848V403.784ZM236.787 365V419.656H230.771V365H236.787ZM217.011 365.32H223.027V418.696H217.011V389.704H208.371V383.688H217.011V365.32ZM202.419 366.6C202.419 374.707 202.013 382.109 201.203 388.808L214.451 412.872L209.139 415.688L199.538 397.768C198.173 403.272 196.253 407.56 193.779 410.632C191.347 413.704 188.317 415.624 184.691 416.392V409.992C188.829 408.627 191.795 404.253 193.587 396.872C195.379 389.448 196.296 379.272 196.339 366.344L202.419 366.6ZM291.149 389.256H283.085V383.88H291.149V377.416H283.085V372.04H291.149V365H297.421V405.704H291.149V389.256ZM282.829 395.336C281.037 395.976 278.605 396.488 275.533 396.872C272.461 397.213 269.005 397.384 265.165 397.384H246.349V392.008H252.749V371.72H246.541V366.344H281.357V371.72H275.021V391.624C278.349 391.24 280.952 390.707 282.829 390.024V395.336ZM258.829 392.008H265.613C267.106 392.008 268.216 391.987 268.941 391.944V371.72H258.829V392.008ZM298.701 413.256V418.952H250.893V402.312H257.293V413.256H298.701ZM364.84 373.832V379.656H357.16V391.752H350.823V365H357.16V373.832H364.84ZM325.991 380.808C323.986 383.624 321.426 385.949 318.311 387.784C315.197 389.576 311.698 390.728 307.815 391.24V385.608C311.186 385.011 314.109 383.752 316.583 381.832C319.101 379.912 321.021 377.544 322.343 374.728C323.666 371.912 324.349 368.84 324.391 365.512L330.727 365.896C330.727 369.523 330.045 372.893 328.679 376.008L345.895 385.544L342.759 390.344L325.991 380.808ZM317.799 413.96H358.503V418.952H311.527V404.488H350.887V399.752H311.399V394.76H357.16V409.224H317.799V413.96Z" fill="#0361FB"/>
<path d="M124.792 463.656V465.624H104.32V463.656H113.368V461.544H105.784V453.12H108.136V455.472H120.976V453.12H123.304V461.544H115.72V463.656H124.792ZM108.136 459.672H120.976V457.272H108.136V459.672ZM105.568 467.544H123.352V473.52H120.952V469.488H105.568V467.544ZM146.594 453V473.496H144.218V453H146.594ZM136.226 455.928C136.21 458.2 135.994 460.36 135.578 462.408L142.274 470.688L140.402 472.104L134.882 465.072C134.178 467.216 133.226 468.912 132.026 470.16C130.842 471.392 129.474 472.096 127.922 472.272V469.92C129.122 469.696 130.154 468.96 131.018 467.712C131.898 466.464 132.578 464.824 133.058 462.792C133.538 460.76 133.794 458.472 133.826 455.928H128.402V453.744H141.482V455.928H136.226ZM172.044 457.272V459.552H169.164V464.568H166.788V453H169.164V457.272H172.044ZM163.308 463.584H151.332V453.36H153.66V456.36H160.98V453.36H163.308V463.584ZM160.98 461.616V458.304H153.66V461.616H160.98ZM154.404 471.24H169.38V473.232H152.028V465.696H169.164V467.688H154.404V471.24ZM190.39 455.952H175.006V453.72H192.862V467.256H190.39V455.952ZM194.23 470.28V472.512H173.758V470.28H181.39V461.136H183.838V470.28H194.23ZM223.394 453V473.496H221.138V453H223.394ZM215.978 453.12H218.234V473.136H215.978V462.264H212.738V460.008H215.978V453.12ZM210.506 453.6C210.506 456.64 210.354 459.416 210.05 461.928L215.018 470.952L213.026 472.008L209.426 465.288C208.914 467.352 208.194 468.96 207.266 470.112C206.354 471.264 205.218 471.984 203.858 472.272V469.872C205.41 469.36 206.522 467.72 207.194 464.952C207.866 462.168 208.21 458.352 208.226 453.504L210.506 453.6ZM248.268 456.912V459.168H245.388V464.328H243.012V453H245.388V456.912H248.268ZM233.82 459.432C233.052 460.664 232.076 461.672 230.892 462.456C229.708 463.224 228.372 463.712 226.884 463.92V461.76C228.148 461.536 229.244 461.024 230.172 460.224C231.116 459.408 231.836 458.392 232.332 457.176C232.828 455.96 233.084 454.632 233.1 453.192L235.476 453.336C235.476 454.808 235.228 456.216 234.732 457.56L241.092 461.688L239.868 463.44L233.82 459.432ZM236.916 465C239.556 465 241.676 465.344 243.276 466.032C244.892 466.72 245.7 467.792 245.7 469.248C245.7 470.704 244.892 471.776 243.276 472.464C241.676 473.152 239.556 473.496 236.916 473.496C234.276 473.496 232.148 473.152 230.532 472.464C228.932 471.776 228.132 470.704 228.132 469.248C228.132 467.792 228.932 466.72 230.532 466.032C232.148 465.344 234.276 465 236.916 465ZM236.916 471.528C238.772 471.528 240.276 471.336 241.428 470.952C242.58 470.568 243.156 470 243.156 469.248C243.156 468.496 242.58 467.928 241.428 467.544C240.276 467.16 238.772 466.968 236.916 466.968C235.076 466.968 233.572 467.16 232.404 467.544C231.252 467.928 230.676 468.496 230.676 469.248C230.676 470 231.252 470.568 232.404 470.952C233.556 471.336 235.06 471.528 236.916 471.528ZM273.713 462.096H270.689V460.08H273.713V457.656H270.689V455.64H273.713V453H276.065V468.264H273.713V462.096ZM270.593 464.376C269.921 464.616 269.009 464.808 267.857 464.952C266.705 465.08 265.409 465.144 263.969 465.144H256.913V463.128H259.313V455.52H256.985V453.504H270.041V455.52H267.665V462.984C268.913 462.84 269.889 462.64 270.593 462.384V464.376ZM261.593 463.128H264.137C264.697 463.128 265.113 463.12 265.385 463.104V455.52H261.593V463.128ZM276.545 471.096V473.232H258.617V466.992H261.017V471.096H276.545ZM288.219 456.24H293.667V458.352H280.371V456.24H285.795V452.952H288.219V456.24ZM301.347 463.584H298.467V473.496H296.091V453H298.467V461.304H301.347V463.584ZM287.019 459.984C288.123 459.984 289.107 460.248 289.971 460.776C290.835 461.288 291.507 462.024 291.987 462.984C292.467 463.928 292.707 465.016 292.707 466.248C292.707 467.48 292.467 468.576 291.987 469.536C291.507 470.48 290.835 471.208 289.971 471.72C289.107 472.248 288.123 472.512 287.019 472.512C285.915 472.512 284.931 472.248 284.067 471.72C283.203 471.208 282.523 470.48 282.027 469.536C281.547 468.576 281.307 467.48 281.307 466.248C281.307 465.016 281.547 463.928 282.027 462.984C282.523 462.024 283.203 461.288 284.067 460.776C284.931 460.248 285.915 459.984 287.019 459.984ZM287.019 470.448C287.659 470.448 288.235 470.28 288.747 469.944C289.259 469.608 289.659 469.12 289.947 468.48C290.251 467.84 290.403 467.096 290.403 466.248C290.403 465.4 290.251 464.656 289.947 464.016C289.659 463.376 289.259 462.888 288.747 462.552C288.235 462.216 287.659 462.048 287.019 462.048C286.027 462.048 285.211 462.432 284.571 463.2C283.931 463.952 283.611 464.968 283.611 466.248C283.611 467.528 283.931 468.552 284.571 469.32C285.211 470.072 286.027 470.448 287.019 470.448ZM322.765 453V473.496H320.485V453H322.765ZM315.373 453.12H317.629V473.136H315.373V463.512H311.701C311.365 465.304 310.805 466.856 310.021 468.168C309.253 469.464 308.309 470.456 307.189 471.144C306.085 471.848 304.861 472.208 303.517 472.224V469.992C304.781 469.96 305.885 469.504 306.829 468.624C307.773 467.728 308.501 466.488 309.013 464.904C309.525 463.32 309.781 461.48 309.781 459.384V455.904H303.517V453.744H312.085V459.264C312.085 459.936 312.061 460.6 312.013 461.256H315.373V453.12ZM354.425 456.312V458.496H351.545V463.032H349.169V453H351.545V456.312H354.425ZM339.857 458.928C339.105 459.984 338.145 460.856 336.977 461.544C335.809 462.216 334.497 462.648 333.041 462.84V460.728C334.305 460.504 335.401 460.032 336.329 459.312C337.273 458.592 337.993 457.704 338.489 456.648C338.985 455.592 339.241 454.44 339.257 453.192L341.633 453.336C341.633 454.696 341.377 455.96 340.865 457.128L347.321 460.704L346.145 462.504L339.857 458.928ZM336.785 471.36H352.049V473.232H334.433V467.808H349.193V466.032H334.385V464.16H351.545V469.584H336.785V471.36ZM377.571 463.584H374.691V473.496H372.315V453H374.691V461.304H377.571V463.584ZM364.587 455.928C364.571 458.296 364.363 460.464 363.963 462.432L370.539 470.688L368.667 472.104L363.267 465.12C362.563 467.248 361.619 468.928 360.435 470.16C359.267 471.392 357.915 472.096 356.379 472.272V469.92C357.563 469.696 358.587 468.96 359.451 467.712C360.315 466.464 360.979 464.824 361.443 462.792C361.907 460.76 362.155 458.472 362.187 455.928H356.859V453.744H369.747V455.928H364.587Z" fill="#72A8FE"/>
</svg>
