<svg width="185" height="44" viewBox="0 0 185 44" fill="none" xmlns="http://www.w3.org/2000/svg">
<path d="M1.86719 19.9665V3.73392C1.86719 2.39399 3.52283 1.74466 4.44955 2.72114L19.855 18.9538C20.7511 19.8979 20.075 21.4455 18.7665 21.4455H3.36096C2.53597 21.4455 1.86719 20.7833 1.86719 19.9665Z" fill="#72A8FE"/>
<path d="M20.3528 19.9665V3.73392C20.3528 2.39399 18.6971 1.74466 17.7704 2.72114L2.24662 19.0784C1.39538 19.9752 2.0377 21.4455 3.2808 21.4455H18.859C19.6839 21.4455 20.3528 20.7833 20.3528 19.9665Z" fill="#0361FB"/>
<path d="M35.0177 3.14815C34.4531 2.11338 32.9537 2.11338 32.3891 3.14815L23.5971 19.2632C23.0595 20.2485 23.7803 21.4451 24.9114 21.4451H42.4954C43.6266 21.4451 44.3473 20.2485 43.8097 19.2632L35.0177 3.14815Z" fill="#72A8FE"/>
<path d="M35.0177 25.7028C34.4531 24.6681 32.9537 24.6681 32.3891 25.7028L23.5971 41.8179C23.0595 42.8033 23.7803 43.9998 24.9114 43.9998H42.4954C43.6266 43.9998 44.3473 42.8033 43.8097 41.8179L35.0177 25.7028Z" fill="#0361FB"/>
<path d="M18.8589 24.958H3.36096C2.53597 24.958 1.86719 25.6202 1.86719 26.437V28.8404C1.86719 29.6571 2.53597 30.3194 3.36096 30.3194H18.8589C19.6838 30.3194 20.3527 29.6571 20.3527 28.8404V26.437C20.3527 25.6202 19.6838 24.958 18.8589 24.958Z" fill="#72A8FE"/>
<path d="M18.8589 38.6387H3.36096C2.53597 38.6387 1.86719 39.3009 1.86719 40.1177V42.521C1.86719 43.3378 2.53597 44 3.36096 44H18.8589C19.6838 44 20.3527 43.3378 20.3527 42.521V40.1177C20.3527 39.3009 19.6838 38.6387 18.8589 38.6387Z" fill="#72A8FE"/>
<path d="M67.936 22.892V20.978H61.138C60.522 20.978 60.038 20.923 59.686 20.813C59.334 20.681 59.059 20.516 58.861 20.318C58.685 20.098 58.575 19.856 58.531 19.592C58.487 19.306 58.465 18.998 58.465 18.668V11.771C58.465 10.671 58.718 9.923 59.224 9.527C59.752 9.109 60.368 8.9 61.072 8.9C61.754 8.9 62.381 9.098 62.953 9.494C63.525 9.89 63.822 10.616 63.844 11.672H77.44C77.462 10.616 77.748 9.89 78.298 9.494C78.87 9.098 79.508 8.9 80.212 8.9C80.564 8.9 80.894 8.944 81.202 9.032C81.51 9.12 81.785 9.274 82.027 9.494C82.269 9.714 82.456 10.011 82.588 10.385C82.742 10.759 82.819 11.221 82.819 11.771V18.668C82.819 18.998 82.797 19.306 82.753 19.592C82.709 19.856 82.588 20.098 82.39 20.318C82.214 20.516 81.95 20.681 81.598 20.813C81.246 20.923 80.762 20.978 80.146 20.978H73.282V22.892H82.654C83.204 22.892 83.644 22.958 83.974 23.09C84.304 23.222 84.557 23.387 84.733 23.585C84.909 23.783 85.019 24.014 85.063 24.278C85.129 24.52 85.162 24.762 85.162 25.004C85.162 25.312 85.129 25.598 85.063 25.862C85.019 26.104 84.909 26.324 84.733 26.522C84.557 26.72 84.304 26.874 83.974 26.984C83.644 27.094 83.204 27.149 82.654 27.149H58.663C58.113 27.149 57.673 27.094 57.343 26.984C57.013 26.874 56.76 26.72 56.584 26.522C56.408 26.324 56.287 26.104 56.221 25.862C56.177 25.598 56.155 25.312 56.155 25.004C56.155 24.762 56.177 24.52 56.221 24.278C56.287 24.014 56.408 23.783 56.584 23.585C56.76 23.387 57.013 23.222 57.343 23.09C57.673 22.958 58.113 22.892 58.663 22.892H67.936ZM77.506 33.155H61.303C60.687 33.155 60.181 33.089 59.785 32.957C59.389 32.847 59.081 32.693 58.861 32.495C58.641 32.297 58.487 32.077 58.399 31.835C58.333 31.571 58.3 31.307 58.3 31.043C58.3 30.713 58.333 30.416 58.399 30.152C58.487 29.888 58.641 29.668 58.861 29.492C59.081 29.294 59.389 29.14 59.785 29.03C60.181 28.92 60.687 28.865 61.303 28.865H80.179C80.795 28.865 81.279 28.953 81.631 29.129C81.983 29.283 82.247 29.492 82.423 29.756C82.621 30.02 82.742 30.317 82.786 30.647C82.83 30.977 82.852 31.307 82.852 31.637V34.376C82.852 34.926 82.775 35.388 82.621 35.762C82.467 36.136 82.269 36.433 82.027 36.653C81.785 36.873 81.499 37.027 81.169 37.115C80.861 37.203 80.531 37.247 80.179 37.247C79.475 37.247 78.848 37.038 78.298 36.62C77.77 36.224 77.506 35.476 77.506 34.376V33.155ZM77.44 15.566H63.844V17.084H77.44V15.566ZM92.6924 11.441C92.6924 10.341 92.9564 9.593 93.4844 9.197C94.0124 8.779 94.6284 8.57 95.3324 8.57C95.6844 8.57 96.0144 8.614 96.3224 8.702C96.6524 8.79 96.9384 8.944 97.1804 9.164C97.4224 9.384 97.6094 9.681 97.7414 10.055C97.8954 10.429 97.9724 10.891 97.9724 11.441V21.407C97.9724 22.331 97.9724 23.222 97.9724 24.08C97.9944 24.938 98.1044 25.774 98.3024 26.588C98.5224 27.38 98.8854 28.172 99.3914 28.964C99.8974 29.734 100.645 30.493 101.635 31.241C102.339 31.769 102.801 32.341 103.021 32.957C103.263 33.595 103.164 34.266 102.724 34.97C102.482 35.344 102.185 35.619 101.833 35.795C101.503 35.993 101.14 36.103 100.744 36.125C100.502 36.125 100.249 36.092 99.9854 36.026C99.7214 35.982 99.4684 35.872 99.2264 35.696C98.4124 35.058 97.6974 34.376 97.0814 33.65C96.4654 32.946 95.9264 32.22 95.4644 31.472C95.0464 32.176 94.5624 32.88 94.0124 33.584C93.4624 34.31 92.8134 35.003 92.0654 35.663C91.8234 35.883 91.5154 36.037 91.1414 36.125C90.7894 36.213 90.4374 36.268 90.0854 36.29C89.7114 36.312 89.3264 36.246 88.9304 36.092C88.5344 35.938 88.2044 35.641 87.9404 35.201C87.5004 34.497 87.4014 33.837 87.6434 33.221C87.8854 32.605 88.3474 32.022 89.0294 31.472C90.0414 30.658 90.8004 29.855 91.3064 29.063C91.8124 28.249 92.1644 27.435 92.3624 26.621C92.5824 25.785 92.6924 24.938 92.6924 24.08C92.6924 23.222 92.6924 22.331 92.6924 21.407V11.441ZM103.912 24.113H101.965C101.349 24.113 100.854 24.058 100.48 23.948C100.106 23.816 99.8094 23.651 99.5894 23.453C99.3914 23.233 99.2594 22.991 99.1934 22.727C99.1274 22.441 99.0944 22.133 99.0944 21.803C99.0944 21.539 99.1274 21.275 99.1934 21.011C99.2594 20.725 99.3914 20.483 99.5894 20.285C99.8094 20.065 100.106 19.889 100.48 19.757C100.854 19.625 101.349 19.559 101.965 19.559H103.912V11.441C103.912 10.341 104.143 9.593 104.605 9.197C105.089 8.779 105.639 8.57 106.255 8.57C106.849 8.57 107.377 8.779 107.839 9.197C108.323 9.593 108.565 10.341 108.565 11.441V33.98C108.565 34.552 108.499 35.025 108.367 35.399C108.235 35.773 108.059 36.07 107.839 36.29C107.641 36.51 107.399 36.664 107.113 36.752C106.827 36.84 106.541 36.884 106.255 36.884C105.947 36.884 105.65 36.84 105.364 36.752C105.078 36.664 104.825 36.51 104.605 36.29C104.407 36.07 104.242 35.773 104.11 35.399C103.978 35.025 103.912 34.552 103.912 33.98V24.113ZM111.304 11.441C111.304 10.341 111.535 9.593 111.997 9.197C112.481 8.779 113.031 8.57 113.647 8.57C114.241 8.57 114.769 8.779 115.231 9.197C115.715 9.593 115.957 10.341 115.957 11.441V33.98C115.957 34.552 115.891 35.025 115.759 35.399C115.627 35.773 115.451 36.07 115.231 36.29C115.033 36.51 114.791 36.664 114.505 36.752C114.219 36.84 113.933 36.884 113.647 36.884C113.339 36.884 113.042 36.84 112.756 36.752C112.47 36.664 112.217 36.51 111.997 36.29C111.799 36.07 111.634 35.773 111.502 35.399C111.37 35.025 111.304 34.552 111.304 33.98V11.441ZM121.442 23.618C121.442 23.376 121.475 23.134 121.541 22.892C121.607 22.65 121.728 22.441 121.904 22.265C122.102 22.067 122.355 21.913 122.663 21.803C122.993 21.671 123.422 21.583 123.95 21.539V13.256C123.444 13.234 123.026 13.168 122.696 13.058C122.366 12.926 122.102 12.761 121.904 12.563C121.728 12.365 121.607 12.145 121.541 11.903C121.475 11.661 121.442 11.386 121.442 11.078C121.442 10.814 121.475 10.561 121.541 10.319C121.629 10.055 121.783 9.824 122.003 9.626C122.223 9.428 122.531 9.274 122.927 9.164C123.323 9.032 123.829 8.966 124.445 8.966H135.83C136.446 8.966 136.952 9.032 137.348 9.164C137.744 9.274 138.052 9.428 138.272 9.626C138.492 9.824 138.635 10.055 138.701 10.319C138.789 10.561 138.833 10.814 138.833 11.078C138.833 11.716 138.646 12.233 138.272 12.629C137.898 13.025 137.139 13.234 135.995 13.256V21.506C136.567 21.528 137.04 21.605 137.414 21.737C137.788 21.847 138.074 22.001 138.272 22.199C138.492 22.397 138.635 22.617 138.701 22.859C138.789 23.101 138.833 23.354 138.833 23.618C138.833 23.948 138.789 24.245 138.701 24.509C138.635 24.773 138.492 25.004 138.272 25.202C138.052 25.378 137.744 25.521 137.348 25.631C136.952 25.741 136.446 25.796 135.83 25.796H124.445C123.829 25.796 123.323 25.741 122.927 25.631C122.531 25.521 122.223 25.378 122.003 25.202C121.783 25.004 121.629 24.773 121.541 24.509C121.475 24.245 121.442 23.948 121.442 23.618ZM128.702 32.693H146.39C147.006 32.693 147.512 32.759 147.908 32.891C148.304 33.023 148.612 33.188 148.832 33.386C149.052 33.606 149.195 33.848 149.261 34.112C149.349 34.398 149.393 34.673 149.393 34.937C149.393 35.267 149.349 35.564 149.261 35.828C149.195 36.114 149.052 36.356 148.832 36.554C148.612 36.774 148.304 36.939 147.908 37.049C147.512 37.181 147.006 37.247 146.39 37.247H126.029C125.413 37.247 124.929 37.181 124.577 37.049C124.225 36.939 123.95 36.774 123.752 36.554C123.576 36.356 123.466 36.114 123.422 35.828C123.378 35.564 123.356 35.267 123.356 34.937V30.053C123.356 28.953 123.62 28.205 124.148 27.809C124.698 27.391 125.325 27.182 126.029 27.182C126.381 27.182 126.711 27.226 127.019 27.314C127.349 27.402 127.635 27.556 127.877 27.776C128.119 27.996 128.317 28.293 128.471 28.667C128.625 29.041 128.702 29.503 128.702 30.053V32.693ZM142.991 23.024H141.341C140.725 23.024 140.23 22.969 139.856 22.859C139.482 22.727 139.185 22.551 138.965 22.331C138.767 22.111 138.635 21.869 138.569 21.605C138.503 21.319 138.47 21.011 138.47 20.681C138.47 20.417 138.503 20.153 138.569 19.889C138.635 19.603 138.767 19.35 138.965 19.13C139.185 18.91 139.482 18.734 139.856 18.602C140.23 18.47 140.725 18.404 141.341 18.404H142.991V16.754H141.341C140.725 16.754 140.23 16.699 139.856 16.589C139.482 16.457 139.185 16.281 138.965 16.061C138.767 15.841 138.635 15.599 138.569 15.335C138.503 15.049 138.47 14.741 138.47 14.411C138.47 14.147 138.503 13.883 138.569 13.619C138.635 13.333 138.767 13.08 138.965 12.86C139.185 12.64 139.482 12.464 139.856 12.332C140.23 12.2 140.725 12.134 141.341 12.134H142.991V11.441C142.991 10.341 143.255 9.593 143.783 9.197C144.333 8.779 144.96 8.57 145.664 8.57C146.016 8.57 146.346 8.614 146.654 8.702C146.984 8.79 147.27 8.944 147.512 9.164C147.754 9.384 147.952 9.681 148.106 10.055C148.26 10.429 148.337 10.891 148.337 11.441V24.641C148.337 25.213 148.26 25.686 148.106 26.06C147.952 26.434 147.754 26.731 147.512 26.951C147.27 27.171 146.984 27.325 146.654 27.413C146.346 27.501 146.016 27.545 145.664 27.545C145.312 27.545 144.971 27.501 144.641 27.413C144.333 27.325 144.047 27.171 143.783 26.951C143.541 26.731 143.343 26.434 143.189 26.06C143.057 25.686 142.991 25.213 142.991 24.641V23.024ZM128.933 21.506H131.012V13.256H128.933V21.506ZM161.114 31.934V33.287H177.152C177.768 33.287 178.274 33.331 178.67 33.419C179.066 33.529 179.374 33.672 179.594 33.848C179.814 34.024 179.957 34.233 180.023 34.475C180.111 34.717 180.155 34.97 180.155 35.234C180.155 35.564 180.111 35.85 180.023 36.092C179.957 36.334 179.814 36.532 179.594 36.686C179.374 36.862 179.066 36.994 178.67 37.082C178.274 37.17 177.768 37.214 177.152 37.214H158.441C157.825 37.214 157.341 37.159 156.989 37.049C156.637 36.939 156.362 36.785 156.164 36.587C155.988 36.411 155.878 36.191 155.834 35.927C155.79 35.663 155.768 35.366 155.768 35.036V30.086C155.768 29.866 155.79 29.646 155.834 29.426C155.9 29.206 156.021 29.008 156.197 28.832C156.373 28.656 156.626 28.524 156.956 28.436C157.286 28.326 157.726 28.271 158.276 28.271H174.149V26.918H158.276C157.726 26.918 157.286 26.874 156.956 26.786C156.626 26.698 156.373 26.577 156.197 26.423C156.021 26.247 155.9 26.049 155.834 25.829C155.79 25.587 155.768 25.323 155.768 25.037C155.768 24.817 155.79 24.586 155.834 24.344C155.9 24.102 156.021 23.893 156.197 23.717C156.373 23.541 156.626 23.398 156.956 23.288C157.286 23.156 157.726 23.09 158.276 23.09H176.987C177.537 23.09 177.977 23.156 178.307 23.288C178.637 23.398 178.89 23.541 179.066 23.717C179.242 23.893 179.352 24.102 179.396 24.344C179.462 24.586 179.495 24.817 179.495 25.037V30.086C179.495 30.372 179.462 30.625 179.396 30.845C179.352 31.065 179.242 31.263 179.066 31.439C178.89 31.593 178.637 31.714 178.307 31.802C177.977 31.89 177.537 31.934 176.987 31.934H161.114ZM167.417 21.341C166.581 20.989 165.745 20.538 164.909 19.988C164.073 19.416 163.336 18.778 162.698 18.074C162.082 18.866 161.389 19.581 160.619 20.219C159.849 20.835 159.013 21.308 158.111 21.638C157.803 21.748 157.462 21.836 157.088 21.902C156.736 21.968 156.384 21.979 156.032 21.935C155.658 21.891 155.284 21.759 154.91 21.539C154.558 21.319 154.294 20.978 154.118 20.516C153.854 19.746 153.865 19.086 154.151 18.536C154.437 17.986 154.976 17.524 155.768 17.15C156.582 16.776 157.242 16.413 157.748 16.061C158.276 15.709 158.683 15.324 158.969 14.906C159.277 14.488 159.486 14.015 159.596 13.487C159.706 12.937 159.761 12.277 159.761 11.507V11.111C159.783 10.583 159.871 10.165 160.025 9.857C160.179 9.549 160.377 9.318 160.619 9.164C160.883 8.988 161.18 8.878 161.51 8.834C161.84 8.768 162.17 8.735 162.5 8.735C162.852 8.735 163.193 8.768 163.523 8.834C163.853 8.878 164.139 8.999 164.381 9.197C164.645 9.373 164.854 9.626 165.008 9.956C165.162 10.286 165.239 10.726 165.239 11.276V11.441C165.261 12.277 165.36 12.959 165.536 13.487C165.712 14.015 165.965 14.466 166.295 14.84C166.625 15.192 167.032 15.522 167.516 15.83C168 16.116 168.572 16.435 169.232 16.787C170.002 17.205 170.53 17.678 170.816 18.206C171.124 18.734 171.113 19.383 170.783 20.153C170.409 20.967 169.815 21.44 169.001 21.572C168.451 21.638 167.923 21.561 167.417 21.341ZM173.753 11.441C173.753 10.341 174.017 9.593 174.545 9.197C175.095 8.779 175.722 8.57 176.426 8.57C176.778 8.57 177.108 8.614 177.416 8.702C177.746 8.79 178.032 8.944 178.274 9.164C178.516 9.384 178.714 9.681 178.868 10.055C179.022 10.429 179.099 10.891 179.099 11.441V12.893H181.508C182.124 12.893 182.63 12.97 183.026 13.124C183.422 13.256 183.73 13.432 183.95 13.652C184.17 13.872 184.313 14.125 184.379 14.411C184.467 14.675 184.511 14.939 184.511 15.203C184.511 15.533 184.467 15.841 184.379 16.127C184.313 16.413 184.17 16.666 183.95 16.886C183.73 17.084 183.422 17.249 183.026 17.381C182.63 17.513 182.124 17.579 181.508 17.579H179.099V19.328C179.099 19.9 179.022 20.362 178.868 20.714C178.714 21.044 178.516 21.297 178.274 21.473C178.032 21.649 177.746 21.77 177.416 21.836C177.108 21.88 176.778 21.902 176.426 21.902C176.074 21.902 175.733 21.88 175.403 21.836C175.095 21.77 174.809 21.649 174.545 21.473C174.303 21.297 174.105 21.044 173.951 20.714C173.819 20.362 173.753 19.9 173.753 19.328V11.441Z" fill="#0361FB"/>
</svg>
