<svg width="170" height="44" viewBox="0 0 170 44" fill="none" xmlns="http://www.w3.org/2000/svg">
<path d="M20.8711 20.5336H3.83887V2.93359" fill="#72A8FE"/>
<path d="M3.83887 20.5336H20.8711V2.93359" fill="#0361FB"/>
<path d="M32.9355 23.4668L23.7097 41.0668H42.1613L32.9355 23.4668Z" fill="#0361FB"/>
<path d="M32.9355 2.93359L23.7097 20.5336H42.1613L32.9355 2.93359Z" fill="#72A8FE"/>
<path d="M20.8711 23.4668H3.83887V28.4668H20.8711V23.4668Z" fill="#72A8FE"/>
<path d="M20.8711 36.0801H3.83887V41.0801H20.8711V36.0801Z" fill="#72A8FE"/>
<path d="M78.148 22.514V25.056H51.705V22.514H63.392V19.786H53.596V8.905H56.634V11.943H73.219V8.905H76.226V19.786H66.43V22.514H78.148ZM56.634 17.368H73.219V14.268H56.634V17.368ZM53.317 27.536H76.288V35.255H73.188V30.047H53.317V27.536ZM107.053 8.75V35.224H104.139V8.75H107.053ZM97.4738 8.905H100.388V34.759H97.4738V20.716H93.2888V17.802H97.4738V8.905ZM90.4058 9.525C90.4058 13.4517 90.2095 17.0373 89.8168 20.282L96.2338 31.938L93.6608 33.302L89.0108 24.622C88.3495 27.288 87.4195 29.365 86.2208 30.853C85.0428 32.341 83.5755 33.271 81.8188 33.643V30.543C83.8235 29.8817 85.2598 27.7633 86.1278 24.188C86.9958 20.592 87.4402 15.663 87.4608 9.401L90.4058 9.525ZM133.385 20.499H129.479V17.895H133.385V14.764H129.479V12.16H133.385V8.75H136.423V28.466H133.385V20.499ZM129.355 23.444C128.487 23.754 127.309 24.002 125.821 24.188C124.333 24.3533 122.659 24.436 120.799 24.436H111.685V21.832H114.785V12.005H111.778V9.401H128.642V12.005H125.573V21.646C127.185 21.46 128.445 21.2017 129.355 20.871V23.444ZM117.73 21.832H121.016C121.739 21.832 122.276 21.8217 122.628 21.801V12.005H117.73V21.832ZM137.043 32.124V34.883H113.886V26.823H116.986V32.124H137.043ZM169.079 13.028V15.849H165.359V21.708H162.29V8.75H165.359V13.028H169.079ZM150.262 16.407C149.29 17.771 148.05 18.8973 146.542 19.786C145.033 20.654 143.338 21.212 141.458 21.46V18.732C143.09 18.4427 144.506 17.833 145.705 16.903C146.924 15.973 147.854 14.826 148.495 13.462C149.135 12.098 149.466 10.61 149.487 8.998L152.556 9.184C152.556 10.9407 152.225 12.5733 151.564 14.082L159.903 18.701L158.384 21.026L150.262 16.407ZM146.294 32.465H166.01V34.883H143.256V27.877H162.321V25.583H143.194V23.165H165.359V30.171H146.294V32.465Z" fill="#0361FB"/>
</svg>
