<svg width="186" height="63" viewBox="0 0 186 63" fill="none" xmlns="http://www.w3.org/2000/svg">
<path d="M35.112 19.064V16.976H27.696C27.024 16.976 26.496 16.916 26.112 16.796C25.728 16.652 25.428 16.472 25.212 16.256C25.02 16.016 24.9 15.752 24.852 15.464C24.804 15.152 24.78 14.816 24.78 14.456V6.932C24.78 5.732 25.056 4.916 25.608 4.484C26.184 4.028 26.856 3.8 27.624 3.8C28.368 3.8 29.052 4.016 29.676 4.448C30.3 4.88 30.624 5.672 30.648 6.824H45.48C45.504 5.672 45.816 4.88 46.416 4.448C47.04 4.016 47.736 3.8 48.504 3.8C48.888 3.8 49.248 3.848 49.584 3.944C49.92 4.04 50.22 4.208 50.484 4.448C50.748 4.688 50.952 5.012 51.096 5.42C51.264 5.828 51.348 6.332 51.348 6.932V14.456C51.348 14.816 51.324 15.152 51.276 15.464C51.228 15.752 51.096 16.016 50.88 16.256C50.688 16.472 50.4 16.652 50.016 16.796C49.632 16.916 49.104 16.976 48.432 16.976H40.944V19.064H51.168C51.768 19.064 52.248 19.136 52.608 19.28C52.968 19.424 53.244 19.604 53.436 19.82C53.628 20.036 53.748 20.288 53.796 20.576C53.868 20.84 53.904 21.104 53.904 21.368C53.904 21.704 53.868 22.016 53.796 22.304C53.748 22.568 53.628 22.808 53.436 23.024C53.244 23.24 52.968 23.408 52.608 23.528C52.248 23.648 51.768 23.708 51.168 23.708H24.996C24.396 23.708 23.916 23.648 23.556 23.528C23.196 23.408 22.92 23.24 22.728 23.024C22.536 22.808 22.404 22.568 22.332 22.304C22.284 22.016 22.26 21.704 22.26 21.368C22.26 21.104 22.284 20.84 22.332 20.576C22.404 20.288 22.536 20.036 22.728 19.82C22.92 19.604 23.196 19.424 23.556 19.28C23.916 19.136 24.396 19.064 24.996 19.064H35.112ZM45.552 30.26H27.876C27.204 30.26 26.652 30.188 26.22 30.044C25.788 29.924 25.452 29.756 25.212 29.54C24.972 29.324 24.804 29.084 24.708 28.82C24.636 28.532 24.6 28.244 24.6 27.956C24.6 27.596 24.636 27.272 24.708 26.984C24.804 26.696 24.972 26.456 25.212 26.264C25.452 26.048 25.788 25.88 26.22 25.76C26.652 25.64 27.204 25.58 27.876 25.58H48.468C49.14 25.58 49.668 25.676 50.052 25.868C50.436 26.036 50.724 26.264 50.916 26.552C51.132 26.84 51.264 27.164 51.312 27.524C51.36 27.884 51.384 28.244 51.384 28.604V31.592C51.384 32.192 51.3 32.696 51.132 33.104C50.964 33.512 50.748 33.836 50.484 34.076C50.22 34.316 49.908 34.484 49.548 34.58C49.212 34.676 48.852 34.724 48.468 34.724C47.7 34.724 47.016 34.496 46.416 34.04C45.84 33.608 45.552 32.792 45.552 31.592V30.26ZM45.48 11.072H30.648V12.728H45.48V11.072ZM62.839 6.572C62.839 5.372 63.127 4.556 63.703 4.124C64.279 3.668 64.951 3.44 65.719 3.44C66.103 3.44 66.463 3.488 66.799 3.584C67.159 3.68 67.471 3.848 67.735 4.088C67.999 4.328 68.203 4.652 68.347 5.06C68.515 5.468 68.599 5.972 68.599 6.572V17.444C68.599 18.452 68.599 19.424 68.599 20.36C68.623 21.296 68.743 22.208 68.959 23.096C69.199 23.96 69.595 24.824 70.147 25.688C70.699 26.528 71.515 27.356 72.595 28.172C73.363 28.748 73.867 29.372 74.107 30.044C74.371 30.74 74.263 31.472 73.783 32.24C73.519 32.648 73.195 32.948 72.811 33.14C72.451 33.356 72.055 33.476 71.623 33.5C71.359 33.5 71.083 33.464 70.795 33.392C70.507 33.344 70.231 33.224 69.967 33.032C69.079 32.336 68.299 31.592 67.627 30.8C66.955 30.032 66.367 29.24 65.863 28.424C65.407 29.192 64.879 29.96 64.279 30.728C63.679 31.52 62.971 32.276 62.155 32.996C61.891 33.236 61.555 33.404 61.147 33.5C60.763 33.596 60.379 33.656 59.995 33.68C59.587 33.704 59.167 33.632 58.735 33.464C58.303 33.296 57.943 32.972 57.655 32.492C57.175 31.724 57.067 31.004 57.331 30.332C57.595 29.66 58.099 29.024 58.843 28.424C59.947 27.536 60.775 26.66 61.327 25.796C61.879 24.908 62.263 24.02 62.479 23.132C62.719 22.22 62.839 21.296 62.839 20.36C62.839 19.424 62.839 18.452 62.839 17.444V6.572ZM75.079 20.396H72.955C72.283 20.396 71.743 20.336 71.335 20.216C70.927 20.072 70.603 19.892 70.363 19.676C70.147 19.436 70.003 19.172 69.931 18.884C69.859 18.572 69.823 18.236 69.823 17.876C69.823 17.588 69.859 17.3 69.931 17.012C70.003 16.7 70.147 16.436 70.363 16.22C70.603 15.98 70.927 15.788 71.335 15.644C71.743 15.5 72.283 15.428 72.955 15.428H75.079V6.572C75.079 5.372 75.331 4.556 75.835 4.124C76.363 3.668 76.963 3.44 77.635 3.44C78.283 3.44 78.859 3.668 79.363 4.124C79.891 4.556 80.155 5.372 80.155 6.572V31.16C80.155 31.784 80.083 32.3 79.939 32.708C79.795 33.116 79.603 33.44 79.363 33.68C79.147 33.92 78.883 34.088 78.571 34.184C78.259 34.28 77.947 34.328 77.635 34.328C77.299 34.328 76.975 34.28 76.663 34.184C76.351 34.088 76.075 33.92 75.835 33.68C75.619 33.44 75.439 33.116 75.295 32.708C75.151 32.3 75.079 31.784 75.079 31.16V20.396ZM83.143 6.572C83.143 5.372 83.395 4.556 83.899 4.124C84.427 3.668 85.027 3.44 85.699 3.44C86.347 3.44 86.923 3.668 87.427 4.124C87.955 4.556 88.219 5.372 88.219 6.572V31.16C88.219 31.784 88.147 32.3 88.003 32.708C87.859 33.116 87.667 33.44 87.427 33.68C87.211 33.92 86.947 34.088 86.635 34.184C86.323 34.28 86.011 34.328 85.699 34.328C85.363 34.328 85.039 34.28 84.727 34.184C84.415 34.088 84.139 33.92 83.899 33.68C83.683 33.44 83.503 33.116 83.359 32.708C83.215 32.3 83.143 31.784 83.143 31.16V6.572ZM94.9221 19.856C94.9221 19.592 94.9581 19.328 95.0301 19.064C95.1021 18.8 95.2341 18.572 95.4261 18.38C95.6421 18.164 95.9181 17.996 96.2541 17.876C96.6141 17.732 97.0821 17.636 97.6581 17.588V8.552C97.1061 8.528 96.6501 8.456 96.2901 8.336C95.9301 8.192 95.6421 8.012 95.4261 7.796C95.2341 7.58 95.1021 7.34 95.0301 7.076C94.9581 6.812 94.9221 6.512 94.9221 6.176C94.9221 5.888 94.9581 5.612 95.0301 5.348C95.1261 5.06 95.2941 4.808 95.5341 4.592C95.7741 4.376 96.1101 4.208 96.5421 4.088C96.9741 3.944 97.5261 3.872 98.1981 3.872H110.618C111.29 3.872 111.842 3.944 112.274 4.088C112.706 4.208 113.042 4.376 113.282 4.592C113.522 4.808 113.678 5.06 113.75 5.348C113.846 5.612 113.894 5.888 113.894 6.176C113.894 6.872 113.69 7.436 113.282 7.868C112.874 8.3 112.046 8.528 110.798 8.552V17.552C111.422 17.576 111.938 17.66 112.346 17.804C112.754 17.924 113.066 18.092 113.282 18.308C113.522 18.524 113.678 18.764 113.75 19.028C113.846 19.292 113.894 19.568 113.894 19.856C113.894 20.216 113.846 20.54 113.75 20.828C113.678 21.116 113.522 21.368 113.282 21.584C113.042 21.776 112.706 21.932 112.274 22.052C111.842 22.172 111.29 22.232 110.618 22.232H98.1981C97.5261 22.232 96.9741 22.172 96.5421 22.052C96.1101 21.932 95.7741 21.776 95.5341 21.584C95.2941 21.368 95.1261 21.116 95.0301 20.828C94.9581 20.54 94.9221 20.216 94.9221 19.856ZM102.842 29.756H122.138C122.81 29.756 123.362 29.828 123.794 29.972C124.226 30.116 124.562 30.296 124.802 30.512C125.042 30.752 125.198 31.016 125.27 31.304C125.366 31.616 125.414 31.916 125.414 32.204C125.414 32.564 125.366 32.888 125.27 33.176C125.198 33.488 125.042 33.752 124.802 33.968C124.562 34.208 124.226 34.388 123.794 34.508C123.362 34.652 122.81 34.724 122.138 34.724H99.9261C99.2541 34.724 98.7261 34.652 98.3421 34.508C97.9581 34.388 97.6581 34.208 97.4421 33.968C97.2501 33.752 97.1301 33.488 97.0821 33.176C97.0341 32.888 97.0101 32.564 97.0101 32.204V26.876C97.0101 25.676 97.2981 24.86 97.8741 24.428C98.4741 23.972 99.1581 23.744 99.9261 23.744C100.31 23.744 100.67 23.792 101.006 23.888C101.366 23.984 101.678 24.152 101.942 24.392C102.206 24.632 102.422 24.956 102.59 25.364C102.758 25.772 102.842 26.276 102.842 26.876V29.756ZM118.43 19.208H116.63C115.958 19.208 115.418 19.148 115.01 19.028C114.602 18.884 114.278 18.692 114.038 18.452C113.822 18.212 113.678 17.948 113.606 17.66C113.534 17.348 113.498 17.012 113.498 16.652C113.498 16.364 113.534 16.076 113.606 15.788C113.678 15.476 113.822 15.2 114.038 14.96C114.278 14.72 114.602 14.528 115.01 14.384C115.418 14.24 115.958 14.168 116.63 14.168H118.43V12.368H116.63C115.958 12.368 115.418 12.308 115.01 12.188C114.602 12.044 114.278 11.852 114.038 11.612C113.822 11.372 113.678 11.108 113.606 10.82C113.534 10.508 113.498 10.172 113.498 9.812C113.498 9.524 113.534 9.236 113.606 8.948C113.678 8.636 113.822 8.36 114.038 8.12C114.278 7.88 114.602 7.688 115.01 7.544C115.418 7.4 115.958 7.328 116.63 7.328H118.43V6.572C118.43 5.372 118.718 4.556 119.294 4.124C119.894 3.668 120.578 3.44 121.346 3.44C121.73 3.44 122.09 3.488 122.426 3.584C122.786 3.68 123.098 3.848 123.362 4.088C123.626 4.328 123.842 4.652 124.01 5.06C124.178 5.468 124.262 5.972 124.262 6.572V20.972C124.262 21.596 124.178 22.112 124.01 22.52C123.842 22.928 123.626 23.252 123.362 23.492C123.098 23.732 122.786 23.9 122.426 23.996C122.09 24.092 121.73 24.14 121.346 24.14C120.962 24.14 120.59 24.092 120.23 23.996C119.894 23.9 119.582 23.732 119.294 23.492C119.03 23.252 118.814 22.928 118.646 22.52C118.502 22.112 118.43 21.596 118.43 20.972V19.208ZM103.094 17.552H105.362V8.552H103.094V17.552ZM138.921 28.928V30.404H156.417C157.089 30.404 157.641 30.452 158.073 30.548C158.505 30.668 158.841 30.824 159.081 31.016C159.321 31.208 159.477 31.436 159.549 31.7C159.645 31.964 159.693 32.24 159.693 32.528C159.693 32.888 159.645 33.2 159.549 33.464C159.477 33.728 159.321 33.944 159.081 34.112C158.841 34.304 158.505 34.448 158.073 34.544C157.641 34.64 157.089 34.688 156.417 34.688H136.005C135.333 34.688 134.805 34.628 134.421 34.508C134.037 34.388 133.737 34.22 133.521 34.004C133.329 33.812 133.209 33.572 133.161 33.284C133.113 32.996 133.089 32.672 133.089 32.312V26.912C133.089 26.672 133.113 26.432 133.161 26.192C133.233 25.952 133.365 25.736 133.557 25.544C133.749 25.352 134.025 25.208 134.385 25.112C134.745 24.992 135.225 24.932 135.825 24.932H153.141V23.456H135.825C135.225 23.456 134.745 23.408 134.385 23.312C134.025 23.216 133.749 23.084 133.557 22.916C133.365 22.724 133.233 22.508 133.161 22.268C133.113 22.004 133.089 21.716 133.089 21.404C133.089 21.164 133.113 20.912 133.161 20.648C133.233 20.384 133.365 20.156 133.557 19.964C133.749 19.772 134.025 19.616 134.385 19.496C134.745 19.352 135.225 19.28 135.825 19.28H156.237C156.837 19.28 157.317 19.352 157.677 19.496C158.037 19.616 158.313 19.772 158.505 19.964C158.697 20.156 158.817 20.384 158.865 20.648C158.937 20.912 158.973 21.164 158.973 21.404V26.912C158.973 27.224 158.937 27.5 158.865 27.74C158.817 27.98 158.697 28.196 158.505 28.388C158.313 28.556 158.037 28.688 157.677 28.784C157.317 28.88 156.837 28.928 156.237 28.928H138.921ZM145.797 17.372C144.885 16.988 143.973 16.496 143.061 15.896C142.149 15.272 141.345 14.576 140.649 13.808C139.977 14.672 139.221 15.452 138.381 16.148C137.541 16.82 136.629 17.336 135.645 17.696C135.309 17.816 134.937 17.912 134.529 17.984C134.145 18.056 133.761 18.068 133.377 18.02C132.969 17.972 132.561 17.828 132.153 17.588C131.769 17.348 131.481 16.976 131.289 16.472C131.001 15.632 131.013 14.912 131.325 14.312C131.637 13.712 132.225 13.208 133.089 12.8C133.977 12.392 134.697 11.996 135.249 11.612C135.825 11.228 136.269 10.808 136.581 10.352C136.917 9.896 137.145 9.38 137.265 8.804C137.385 8.204 137.445 7.484 137.445 6.644V6.212C137.469 5.636 137.565 5.18 137.733 4.844C137.901 4.508 138.117 4.256 138.381 4.088C138.669 3.896 138.993 3.776 139.353 3.728C139.713 3.656 140.073 3.62 140.433 3.62C140.817 3.62 141.189 3.656 141.549 3.728C141.909 3.776 142.221 3.908 142.485 4.124C142.773 4.316 143.001 4.592 143.169 4.952C143.337 5.312 143.421 5.792 143.421 6.392V6.572C143.445 7.484 143.553 8.228 143.745 8.804C143.937 9.38 144.213 9.872 144.573 10.28C144.933 10.664 145.377 11.024 145.905 11.36C146.433 11.672 147.057 12.02 147.777 12.404C148.617 12.86 149.193 13.376 149.505 13.952C149.841 14.528 149.829 15.236 149.469 16.076C149.061 16.964 148.413 17.48 147.525 17.624C146.925 17.696 146.349 17.612 145.797 17.372ZM152.709 6.572C152.709 5.372 152.997 4.556 153.573 4.124C154.173 3.668 154.857 3.44 155.625 3.44C156.009 3.44 156.369 3.488 156.705 3.584C157.065 3.68 157.377 3.848 157.641 4.088C157.905 4.328 158.121 4.652 158.289 5.06C158.457 5.468 158.541 5.972 158.541 6.572V8.156H161.169C161.841 8.156 162.393 8.24 162.825 8.408C163.257 8.552 163.593 8.744 163.833 8.984C164.073 9.224 164.229 9.5 164.301 9.812C164.397 10.1 164.445 10.388 164.445 10.676C164.445 11.036 164.397 11.372 164.301 11.684C164.229 11.996 164.073 12.272 163.833 12.512C163.593 12.728 163.257 12.908 162.825 13.052C162.393 13.196 161.841 13.268 161.169 13.268H158.541V15.176C158.541 15.8 158.457 16.304 158.289 16.688C158.121 17.048 157.905 17.324 157.641 17.516C157.377 17.708 157.065 17.84 156.705 17.912C156.369 17.96 156.009 17.984 155.625 17.984C155.241 17.984 154.869 17.96 154.509 17.912C154.173 17.84 153.861 17.708 153.573 17.516C153.309 17.324 153.093 17.048 152.925 16.688C152.781 16.304 152.709 15.8 152.709 15.176V6.572Z" fill="#0361FB"/>
<path d="M13.232 49.8C13.232 49.9493 13.2213 50.0987 13.2 50.248C13.1787 50.3973 13.1253 50.5307 13.04 50.648C12.9653 50.7653 12.848 50.8613 12.688 50.936C12.5387 51.0107 12.336 51.048 12.08 51.048H3.12C2.864 51.048 2.656 51.0107 2.496 50.936C2.34667 50.8613 2.22933 50.7653 2.144 50.648C2.06933 50.5307 2.02133 50.3973 2 50.248C1.97867 50.0987 1.968 49.9493 1.968 49.8V46.28C1.968 46.12 2.016 46.0027 2.112 45.928C2.208 45.8427 2.33067 45.8 2.48 45.8C2.62933 45.8 2.752 45.8427 2.848 45.928C2.95467 46.0027 3.008 46.12 3.008 46.28V47.576H12.192V46.28C12.192 46.12 12.24 46.0027 12.336 45.928C12.432 45.8427 12.5547 45.8 12.704 45.8C12.8533 45.8 12.976 45.8427 13.072 45.928C13.1787 46.0027 13.232 46.12 13.232 46.28V49.8ZM11.92 50.12C12.0053 50.12 12.0693 50.0987 12.112 50.056C12.1653 50.0133 12.192 49.928 12.192 49.8V48.504H3.008V49.8C3.008 49.928 3.02933 50.0133 3.072 50.056C3.12533 50.0987 3.19467 50.12 3.28 50.12H11.92ZM14.448 53.768C14.448 53.9173 14.4 54.0347 14.304 54.12C14.2187 54.1947 14.112 54.232 13.984 54.232H1.184C1.056 54.232 0.944 54.1947 0.848 54.12C0.762667 54.0347 0.72 53.9173 0.72 53.768C0.72 53.6187 0.762667 53.5067 0.848 53.432C0.944 53.3467 1.056 53.304 1.184 53.304H7.072V52.168C7.072 52.008 7.12 51.8907 7.216 51.816C7.312 51.7307 7.43467 51.688 7.584 51.688C7.73333 51.688 7.856 51.7307 7.952 51.816C8.05867 51.8907 8.112 52.008 8.112 52.168V53.304H13.984C14.112 53.304 14.2187 53.3467 14.304 53.432C14.4 53.5067 14.448 53.6187 14.448 53.768ZM12.192 56.936C12.192 56.808 12.1653 56.7227 12.112 56.68C12.0693 56.6373 12.0053 56.616 11.92 56.616H2.256C2.128 56.616 2.016 56.5787 1.92 56.504C1.83467 56.4187 1.792 56.3013 1.792 56.152C1.792 56.0027 1.83467 55.8907 1.92 55.816C2.016 55.7307 2.128 55.688 2.256 55.688H12.08C12.336 55.688 12.5387 55.7253 12.688 55.8C12.848 55.8747 12.9653 55.9707 13.04 56.088C13.1253 56.2053 13.1787 56.3387 13.2 56.488C13.2213 56.6373 13.232 56.7867 13.232 56.936V58.712C13.232 58.872 13.184 58.9893 13.088 59.064C12.992 59.1493 12.8693 59.192 12.72 59.192C12.5707 59.192 12.4427 59.1493 12.336 59.064C12.24 58.9893 12.192 58.872 12.192 58.712V56.936ZM23.7151 46.28C23.7151 46.4293 23.6671 46.5467 23.5711 46.632C23.4858 46.7067 23.3791 46.744 23.2511 46.744H20.5471V52.76C20.5471 53.3147 20.6325 53.8373 20.8031 54.328C20.9738 54.808 21.2085 55.2667 21.5071 55.704C21.8058 56.1307 22.1578 56.5413 22.5631 56.936C22.9685 57.3307 23.4005 57.72 23.8591 58.104C23.9871 58.2107 24.0565 58.3333 24.0671 58.472C24.0778 58.6107 24.0405 58.7387 23.9551 58.856C23.8698 58.9733 23.7418 59.0373 23.5711 59.048C23.4111 59.0587 23.2565 59 23.1071 58.872C22.4351 58.3067 21.8325 57.704 21.2991 57.064C20.7765 56.424 20.3605 55.768 20.0511 55.096C19.7738 55.768 19.3791 56.4347 18.8671 57.096C18.3658 57.768 17.7738 58.392 17.0911 58.968C16.9418 59.1067 16.7818 59.1653 16.6111 59.144C16.4511 59.1227 16.3285 59.0533 16.2431 58.936C16.1578 58.8187 16.1258 58.6907 16.1471 58.552C16.1791 58.4133 16.2538 58.2853 16.3711 58.168C16.7978 57.8053 17.1978 57.4213 17.5711 57.016C17.9551 56.6213 18.2911 56.2 18.5791 55.752C18.8671 55.304 19.0911 54.8347 19.2511 54.344C19.4218 53.8427 19.5071 53.3147 19.5071 52.76V46.744H16.8031C16.6751 46.744 16.5631 46.7067 16.4671 46.632C16.3818 46.5467 16.3391 46.4293 16.3391 46.28C16.3391 46.1307 16.3818 46.0187 16.4671 45.944C16.5631 45.8587 16.6751 45.816 16.8031 45.816H23.2511C23.3791 45.816 23.4858 45.8587 23.5711 45.944C23.6671 46.0187 23.7151 46.1307 23.7151 46.28ZM27.6511 46.12C27.6511 45.96 27.6991 45.8427 27.7951 45.768C27.8911 45.6827 28.0138 45.64 28.1631 45.64C28.3125 45.64 28.4351 45.6827 28.5311 45.768C28.6378 45.8427 28.6911 45.96 28.6911 46.12V58.904C28.6911 59.064 28.6378 59.1813 28.5311 59.256C28.4351 59.3413 28.3125 59.384 28.1631 59.384C28.0138 59.384 27.8911 59.3413 27.7951 59.256C27.6991 59.1813 27.6511 59.064 27.6511 58.904V46.12ZM38.4702 51.576C38.4702 51.7253 38.4596 51.8747 38.4382 52.024C38.4169 52.1733 38.3636 52.3067 38.2782 52.424C38.2036 52.5413 38.0862 52.6373 37.9262 52.712C37.7769 52.7867 37.5742 52.824 37.3182 52.824H33.5262C33.2702 52.824 33.0622 52.7867 32.9022 52.712C32.7529 52.6373 32.6356 52.5413 32.5502 52.424C32.4756 52.3067 32.4276 52.1733 32.4062 52.024C32.3849 51.8747 32.3742 51.7253 32.3742 51.576V46.264C32.3742 46.104 32.4222 45.9867 32.5182 45.912C32.6142 45.8267 32.7369 45.784 32.8862 45.784C33.0356 45.784 33.1582 45.8267 33.2542 45.912C33.3609 45.9867 33.4142 46.104 33.4142 46.264V48.472H37.4302V46.264C37.4302 46.104 37.4782 45.9867 37.5742 45.912C37.6702 45.8267 37.7929 45.784 37.9422 45.784C38.0916 45.784 38.2142 45.8267 38.3102 45.912C38.4169 45.9867 38.4702 46.104 38.4702 46.264V51.576ZM43.6543 54.696C43.7822 54.696 43.8889 54.7387 43.9742 54.824C44.0702 54.8987 44.1182 55.0107 44.1182 55.16C44.1182 55.3093 44.0702 55.4267 43.9742 55.512C43.8889 55.5867 43.7822 55.624 43.6543 55.624H33.8462C33.7609 55.624 33.6916 55.6453 33.6382 55.688C33.5956 55.7307 33.5742 55.816 33.5742 55.944V57.864C33.5742 57.992 33.5956 58.0773 33.6382 58.12C33.6916 58.1627 33.7609 58.184 33.8462 58.184H43.8302C43.9583 58.184 44.0649 58.2213 44.1503 58.296C44.2463 58.3813 44.2943 58.4987 44.2943 58.648C44.2943 58.7973 44.2463 58.9093 44.1503 58.984C44.0649 59.0693 43.9583 59.112 43.8302 59.112H33.6862C33.4302 59.112 33.2222 59.0747 33.0622 59C32.9129 58.9253 32.7956 58.8293 32.7102 58.712C32.6356 58.5947 32.5876 58.4613 32.5662 58.312C32.5449 58.1627 32.5342 58.0133 32.5342 57.864V55.944C32.5342 55.7947 32.5449 55.6453 32.5662 55.496C32.5876 55.3467 32.6356 55.2133 32.7102 55.096C32.7956 54.9787 32.9129 54.8827 33.0622 54.808C33.2222 54.7333 33.4302 54.696 33.6862 54.696H43.6543ZM46.2943 49.272C46.2943 49.4213 46.2463 49.5387 46.1503 49.624C46.0649 49.6987 45.9583 49.736 45.8302 49.736H43.7022V52.824C43.7022 52.984 43.6489 53.1067 43.5422 53.192C43.4462 53.2667 43.3236 53.304 43.1742 53.304C43.0249 53.304 42.9022 53.2667 42.8062 53.192C42.7102 53.1067 42.6622 52.984 42.6622 52.824V46.12C42.6622 45.96 42.7102 45.8427 42.8062 45.768C42.9022 45.6827 43.0249 45.64 43.1742 45.64C43.3236 45.64 43.4462 45.6827 43.5422 45.768C43.6489 45.8427 43.7022 45.96 43.7022 46.12V48.808H45.8302C45.9583 48.808 46.0649 48.8507 46.1503 48.936C46.2463 49.0107 46.2943 49.1227 46.2943 49.272ZM37.1582 51.896C37.2436 51.896 37.3076 51.8747 37.3502 51.832C37.4036 51.7893 37.4302 51.704 37.4302 51.576V49.4H33.4142V51.576C33.4142 51.704 33.4356 51.7893 33.4782 51.832C33.5316 51.8747 33.6009 51.896 33.6862 51.896H37.1582ZM61.0174 58.488C61.0174 58.6373 60.9694 58.7493 60.8734 58.824C60.788 58.9093 60.6814 58.952 60.5534 58.952H47.7534C47.6254 58.952 47.5134 58.9093 47.4174 58.824C47.332 58.7493 47.2894 58.6373 47.2894 58.488C47.2894 58.3387 47.332 58.2213 47.4174 58.136C47.5134 58.0613 47.6254 58.024 47.7534 58.024H52.4414V53.416C52.4414 53.256 52.4894 53.1387 52.5854 53.064C52.6814 52.9787 52.804 52.936 52.9534 52.936C53.1027 52.936 53.2254 52.9787 53.3214 53.064C53.428 53.1387 53.4814 53.256 53.4814 53.416V58.024H60.5534C60.6814 58.024 60.788 58.0613 60.8734 58.136C60.9694 58.2213 61.0174 58.3387 61.0174 58.488ZM48.3454 46.456C48.3454 46.3067 48.388 46.1947 48.4734 46.12C48.5694 46.0347 48.6814 45.992 48.8094 45.992H58.4734C58.7294 45.992 58.932 46.0293 59.0814 46.104C59.2414 46.1787 59.3587 46.2747 59.4334 46.392C59.5187 46.5093 59.572 46.6427 59.5934 46.792C59.6147 46.9413 59.6254 47.0907 59.6254 47.24V48.616C59.6254 49.288 59.5934 50.0347 59.5294 50.856C59.4654 51.6667 59.3 52.6213 59.0334 53.72C58.948 54.0933 58.7454 54.2587 58.4254 54.216C58.2654 54.1947 58.1427 54.1253 58.0574 54.008C57.9827 53.88 57.9667 53.7307 58.0094 53.56C58.1374 53.0053 58.2387 52.5307 58.3134 52.136C58.388 51.7307 58.4467 51.3467 58.4894 50.984C58.532 50.6213 58.5587 50.2427 58.5694 49.848C58.58 49.4427 58.5854 48.9627 58.5854 48.408V47.24C58.5854 47.112 58.5587 47.0267 58.5054 46.984C58.4627 46.9413 58.3987 46.92 58.3134 46.92H48.8094C48.6814 46.92 48.5694 46.8827 48.4734 46.808C48.388 46.7227 48.3454 46.6053 48.3454 46.456ZM70.4116 46.12C70.4116 45.96 70.4596 45.8427 70.5556 45.768C70.6516 45.6827 70.7743 45.64 70.9236 45.64C71.073 45.64 71.1956 45.6827 71.2916 45.768C71.3983 45.8427 71.4516 45.96 71.4516 46.12V52.776C71.4623 53.3093 71.537 53.8107 71.6756 54.28C71.825 54.7387 72.0223 55.1813 72.2676 55.608C72.513 56.0347 72.8063 56.4507 73.1476 56.856C73.4996 57.2507 73.889 57.6453 74.3156 58.04C74.433 58.1573 74.4916 58.2853 74.4916 58.424C74.5023 58.5627 74.4596 58.6907 74.3636 58.808C74.2676 58.9253 74.1396 58.9787 73.9796 58.968C73.8196 58.968 73.665 58.8987 73.5156 58.76C72.929 58.2053 72.417 57.6187 71.9796 57C71.553 56.392 71.217 55.7787 70.9716 55.16C70.7263 55.7893 70.3956 56.4187 69.9796 57.048C69.5743 57.688 69.0836 58.312 68.5076 58.92C68.369 59.0693 68.2143 59.144 68.0436 59.144C67.8836 59.144 67.7556 59.0853 67.6596 58.968C67.5636 58.8507 67.5156 58.7227 67.5156 58.584C67.5263 58.4453 67.5903 58.3173 67.7076 58.2C68.0916 57.7947 68.4436 57.3787 68.7636 56.952C69.0943 56.5253 69.3823 56.0827 69.6276 55.624C69.873 55.1653 70.065 54.6853 70.2036 54.184C70.3423 53.6827 70.4116 53.1547 70.4116 52.6V46.12ZM73.4516 51.896C73.4516 51.7467 73.4943 51.6347 73.5796 51.56C73.6756 51.4747 73.7876 51.432 73.9156 51.432H76.4596V46.12C76.4596 45.96 76.5076 45.8427 76.6036 45.768C76.6996 45.6827 76.8223 45.64 76.9716 45.64C77.121 45.64 77.2436 45.6827 77.3396 45.768C77.4463 45.8427 77.4996 45.96 77.4996 46.12V58.904C77.4996 59.064 77.4463 59.1813 77.3396 59.256C77.2436 59.3413 77.121 59.384 76.9716 59.384C76.8223 59.384 76.6996 59.3413 76.6036 59.256C76.5076 59.1813 76.4596 59.064 76.4596 58.904V52.36H73.9156C73.7876 52.36 73.6756 52.3227 73.5796 52.248C73.4943 52.1627 73.4516 52.0453 73.4516 51.896ZM79.3876 46.12C79.3876 45.96 79.4356 45.8427 79.5316 45.768C79.6276 45.6827 79.7503 45.64 79.8996 45.64C80.049 45.64 80.1716 45.6827 80.2676 45.768C80.3743 45.8427 80.4276 45.96 80.4276 46.12V58.904C80.4276 59.064 80.3743 59.1813 80.2676 59.256C80.1716 59.3413 80.049 59.384 79.8996 59.384C79.7503 59.384 79.6276 59.3413 79.5316 59.256C79.4356 59.1813 79.3876 59.064 79.3876 58.904V46.12ZM95.6467 56.84C95.6467 57.64 95.3907 58.216 94.8787 58.568C94.3774 58.9307 93.6041 59.112 92.5587 59.112H86.9747C85.9294 59.112 85.1507 58.9307 84.6387 58.568C84.1374 58.216 83.8867 57.64 83.8867 56.84C83.8867 56.04 84.1374 55.464 84.6387 55.112C85.1507 54.7493 85.9294 54.568 86.9747 54.568H92.5587C93.6041 54.568 94.3774 54.7493 94.8787 55.112C95.3907 55.464 95.6467 56.04 95.6467 56.84ZM94.6067 56.84C94.6067 56.3387 94.4361 55.992 94.0947 55.8C93.7641 55.5973 93.1774 55.496 92.3347 55.496H87.1987C86.3561 55.496 85.7641 55.5973 85.4227 55.8C85.0921 55.992 84.9267 56.3387 84.9267 56.84C84.9267 57.3413 85.0921 57.688 85.4227 57.88C85.7641 58.0827 86.3561 58.184 87.1987 58.184H92.3347C93.1774 58.184 93.7641 58.0827 94.0947 57.88C94.4361 57.688 94.6067 57.3413 94.6067 56.84ZM87.6467 47.352C87.6467 47.9067 87.7107 48.3973 87.8387 48.824C87.9774 49.2507 88.1747 49.6293 88.4307 49.96C88.6974 50.2907 89.0281 50.584 89.4227 50.84C89.8174 51.096 90.2707 51.3307 90.7827 51.544C91.1134 51.6827 91.2361 51.9067 91.1507 52.216C91.1081 52.3653 91.0227 52.472 90.8947 52.536C90.7667 52.6 90.6067 52.6 90.4147 52.536C90.0627 52.4293 89.7161 52.2747 89.3747 52.072C89.0441 51.8587 88.7347 51.6293 88.4467 51.384C88.1694 51.128 87.9187 50.8613 87.6947 50.584C87.4814 50.3067 87.3161 50.0453 87.1987 49.8C87.0707 50.0773 86.8947 50.36 86.6707 50.648C86.4467 50.936 86.1907 51.2133 85.9027 51.48C85.6147 51.736 85.2947 51.9707 84.9427 52.184C84.6014 52.3973 84.2387 52.568 83.8547 52.696C83.6627 52.76 83.5027 52.76 83.3747 52.696C83.2467 52.632 83.1614 52.5253 83.1187 52.376C83.0761 52.2267 83.0867 52.0933 83.1507 51.976C83.2254 51.848 83.3374 51.7573 83.4867 51.704C83.9881 51.512 84.4307 51.288 84.8147 51.032C85.2094 50.776 85.5347 50.4827 85.7907 50.152C86.0574 49.8107 86.2601 49.4267 86.3987 49C86.5374 48.5627 86.6067 48.0667 86.6067 47.512V46.2C86.6067 46.04 86.6547 45.9227 86.7507 45.848C86.8467 45.7627 86.9694 45.72 87.1187 45.72C87.2681 45.72 87.3907 45.7627 87.4867 45.848C87.5934 45.9227 87.6467 46.04 87.6467 46.2V47.352ZM97.8867 49.304C97.8867 49.4533 97.8387 49.5707 97.7427 49.656C97.6574 49.7307 97.5507 49.768 97.4227 49.768H95.2947V52.856C95.2947 53.016 95.2414 53.1387 95.1347 53.224C95.0387 53.2987 94.9161 53.336 94.7667 53.336C94.6174 53.336 94.4947 53.2987 94.3987 53.224C94.3027 53.1387 94.2547 53.016 94.2547 52.856V46.12C94.2547 45.96 94.3027 45.8427 94.3987 45.768C94.4947 45.6827 94.6174 45.64 94.7667 45.64C94.9161 45.64 95.0387 45.6827 95.1347 45.768C95.2414 45.8427 95.2947 45.96 95.2947 46.12V48.84H97.4227C97.5507 48.84 97.6574 48.8827 97.7427 48.968C97.8387 49.0427 97.8867 49.1547 97.8867 49.304ZM111.969 52.856C111.969 53.0053 111.921 53.1227 111.825 53.208C111.74 53.2827 111.633 53.32 111.505 53.32H104.481C104.353 53.32 104.241 53.2827 104.145 53.208C104.06 53.1227 104.017 53.0053 104.017 52.856C104.017 52.7067 104.06 52.5947 104.145 52.52C104.241 52.4347 104.353 52.392 104.481 52.392H105.649V46.92H104.529C104.401 46.92 104.289 46.8827 104.193 46.808C104.108 46.7227 104.065 46.6053 104.065 46.456C104.065 46.3067 104.108 46.1947 104.193 46.12C104.289 46.0347 104.401 45.992 104.529 45.992H111.281C111.409 45.992 111.516 46.0347 111.601 46.12C111.697 46.1947 111.745 46.3067 111.745 46.456C111.745 46.6053 111.697 46.7227 111.601 46.808C111.516 46.8827 111.409 46.92 111.281 46.92H110.305V52.392H111.505C111.633 52.392 111.74 52.4347 111.825 52.52C111.921 52.5947 111.969 52.7067 111.969 52.856ZM112.321 48.376C112.321 48.2267 112.364 48.1147 112.449 48.04C112.545 47.9547 112.657 47.912 112.785 47.912H115.281V46.12C115.281 45.96 115.329 45.8427 115.425 45.768C115.521 45.6827 115.644 45.64 115.793 45.64C115.942 45.64 116.065 45.6827 116.161 45.768C116.268 45.8427 116.321 45.96 116.321 46.12V54.216C116.321 54.376 116.268 54.4987 116.161 54.584C116.065 54.6587 115.942 54.696 115.793 54.696C115.644 54.696 115.521 54.6587 115.425 54.584C115.329 54.4987 115.281 54.376 115.281 54.216V51.56H112.785C112.657 51.56 112.545 51.5227 112.449 51.448C112.364 51.3627 112.321 51.2453 112.321 51.096C112.321 50.9467 112.364 50.8347 112.449 50.76C112.545 50.6747 112.657 50.632 112.785 50.632H115.281V48.84H112.785C112.657 48.84 112.545 48.8027 112.449 48.728C112.364 48.6427 112.321 48.5253 112.321 48.376ZM106.689 52.392H109.265V46.92H106.689V52.392ZM105.873 57.864C105.873 57.992 105.894 58.0773 105.937 58.12C105.99 58.1627 106.06 58.184 106.145 58.184H116.177C116.305 58.184 116.412 58.2213 116.497 58.296C116.593 58.3813 116.641 58.4987 116.641 58.648C116.641 58.7973 116.593 58.9093 116.497 58.984C116.412 59.0693 116.305 59.112 116.177 59.112H105.985C105.729 59.112 105.521 59.0747 105.361 59C105.212 58.9253 105.094 58.8293 105.009 58.712C104.934 58.5947 104.886 58.4613 104.865 58.312C104.844 58.1627 104.833 58.0133 104.833 57.864V55.432C104.833 55.272 104.881 55.1547 104.977 55.08C105.073 54.9947 105.196 54.952 105.345 54.952C105.494 54.952 105.617 54.9947 105.713 55.08C105.82 55.1547 105.873 55.272 105.873 55.432V57.864ZM120.036 53.864C120.036 53.48 120.105 53.1173 120.244 52.776C120.383 52.4347 120.585 52.136 120.852 51.88C121.119 51.624 121.444 51.4213 121.828 51.272C122.223 51.1227 122.676 51.048 123.188 51.048C123.7 51.048 124.153 51.1227 124.548 51.272C124.943 51.4213 125.273 51.624 125.54 51.88C125.817 52.136 126.025 52.4347 126.164 52.776C126.303 53.1173 126.372 53.48 126.372 53.864V56.264C126.372 56.648 126.303 57.0107 126.164 57.352C126.025 57.6933 125.817 57.992 125.54 58.248C125.273 58.504 124.943 58.7067 124.548 58.856C124.153 59.0053 123.7 59.08 123.188 59.08C122.676 59.08 122.223 59.0053 121.828 58.856C121.444 58.7067 121.119 58.504 120.852 58.248C120.585 57.992 120.383 57.6933 120.244 57.352C120.105 57.0107 120.036 56.648 120.036 56.264V53.864ZM121.076 55.816C121.076 56.648 121.257 57.2453 121.62 57.608C121.993 57.9707 122.516 58.152 123.188 58.152C123.871 58.152 124.399 57.9707 124.772 57.608C125.145 57.2453 125.332 56.648 125.332 55.816V54.312C125.332 53.48 125.145 52.8827 124.772 52.52C124.399 52.1573 123.871 51.976 123.188 51.976C122.516 51.976 121.993 52.1573 121.62 52.52C121.257 52.8827 121.076 53.48 121.076 54.312V55.816ZM133.924 51.896C133.924 52.0453 133.876 52.1627 133.78 52.248C133.695 52.3227 133.588 52.36 133.46 52.36H131.172V58.904C131.172 59.064 131.119 59.1813 131.012 59.256C130.916 59.3413 130.793 59.384 130.644 59.384C130.495 59.384 130.372 59.3413 130.276 59.256C130.18 59.1813 130.132 59.064 130.132 58.904V46.12C130.132 45.96 130.18 45.8427 130.276 45.768C130.372 45.6827 130.495 45.64 130.644 45.64C130.793 45.64 130.916 45.6827 131.012 45.768C131.119 45.8427 131.172 45.96 131.172 46.12V51.432H133.46C133.588 51.432 133.695 51.4747 133.78 51.56C133.876 51.6347 133.924 51.7467 133.924 51.896ZM127.028 48.888C127.028 49.0373 126.98 49.1547 126.884 49.24C126.799 49.3147 126.692 49.352 126.564 49.352H119.812C119.684 49.352 119.572 49.3147 119.476 49.24C119.391 49.1547 119.348 49.0373 119.348 48.888C119.348 48.7387 119.391 48.6267 119.476 48.552C119.572 48.4667 119.684 48.424 119.812 48.424H126.564C126.692 48.424 126.799 48.4667 126.884 48.552C126.98 48.6267 127.028 48.7387 127.028 48.888ZM126.02 46.216C126.02 46.3653 125.972 46.4827 125.876 46.568C125.791 46.6427 125.684 46.68 125.556 46.68H120.82C120.692 46.68 120.58 46.6427 120.484 46.568C120.399 46.4827 120.356 46.3653 120.356 46.216C120.356 46.0667 120.399 45.9547 120.484 45.88C120.58 45.7947 120.692 45.752 120.82 45.752H125.556C125.684 45.752 125.791 45.7947 125.876 45.88C125.972 45.9547 126.02 46.0667 126.02 46.216ZM135.079 46.296C135.079 46.1467 135.122 46.0347 135.207 45.96C135.303 45.8747 135.415 45.832 135.543 45.832H139.095C139.351 45.832 139.554 45.8693 139.703 45.944C139.863 46.0187 139.981 46.1147 140.055 46.232C140.141 46.3493 140.194 46.4827 140.215 46.632C140.237 46.7813 140.247 46.9307 140.247 47.08V51.144C140.247 51.6027 140.242 52.1467 140.231 52.776C140.221 53.3947 140.183 54.056 140.119 54.76C140.055 55.4533 139.949 56.1573 139.799 56.872C139.65 57.576 139.437 58.2373 139.159 58.856C139.074 59.0373 138.951 59.1493 138.791 59.192C138.642 59.2453 138.503 59.2347 138.375 59.16C138.247 59.0853 138.162 58.9787 138.119 58.84C138.087 58.712 138.109 58.5733 138.183 58.424C138.429 57.88 138.621 57.2933 138.759 56.664C138.898 56.024 138.999 55.3733 139.063 54.712C139.127 54.04 139.165 53.384 139.175 52.744C139.197 52.0933 139.207 51.4907 139.207 50.936V47.08C139.207 46.952 139.181 46.8667 139.127 46.824C139.085 46.7813 139.021 46.76 138.935 46.76H135.543C135.415 46.76 135.303 46.7227 135.207 46.648C135.122 46.5627 135.079 46.4453 135.079 46.296ZM141.207 51.896C141.207 51.7467 141.25 51.6347 141.335 51.56C141.431 51.4747 141.543 51.432 141.671 51.432H143.575V46.12C143.575 45.96 143.623 45.8427 143.719 45.768C143.815 45.6827 143.938 45.64 144.087 45.64C144.237 45.64 144.359 45.6827 144.455 45.768C144.562 45.8427 144.615 45.96 144.615 46.12V58.904C144.615 59.064 144.562 59.1813 144.455 59.256C144.359 59.3413 144.237 59.384 144.087 59.384C143.938 59.384 143.815 59.3413 143.719 59.256C143.623 59.1813 143.575 59.064 143.575 58.904V52.36H141.671C141.543 52.36 141.431 52.3227 141.335 52.248C141.25 52.1627 141.207 52.0453 141.207 51.896ZM146.503 46.12C146.503 45.96 146.551 45.8427 146.647 45.768C146.743 45.6827 146.866 45.64 147.015 45.64C147.165 45.64 147.287 45.6827 147.383 45.768C147.49 45.8427 147.543 45.96 147.543 46.12V58.904C147.543 59.064 147.49 59.1813 147.383 59.256C147.287 59.3413 147.165 59.384 147.015 59.384C146.866 59.384 146.743 59.3413 146.647 59.256C146.551 59.1813 146.503 59.064 146.503 58.904V46.12ZM157.289 57.864C157.289 57.992 157.311 58.0773 157.353 58.12C157.407 58.1627 157.476 58.184 157.561 58.184H167.465C167.593 58.184 167.7 58.2213 167.785 58.296C167.881 58.3813 167.929 58.4987 167.929 58.648C167.929 58.7973 167.881 58.9093 167.785 58.984C167.7 59.0693 167.593 59.112 167.465 59.112H157.401C157.145 59.112 156.937 59.0853 156.777 59.032C156.628 58.9893 156.511 58.9253 156.425 58.84C156.351 58.7547 156.303 58.648 156.281 58.52C156.26 58.4027 156.249 58.2693 156.249 58.12V56.872C156.249 56.7227 156.26 56.584 156.281 56.456C156.303 56.3173 156.351 56.2 156.425 56.104C156.511 56.008 156.628 55.9333 156.777 55.88C156.937 55.816 157.145 55.784 157.401 55.784H166.137C166.223 55.784 166.287 55.7627 166.329 55.72C166.383 55.6773 166.409 55.592 166.409 55.464V54.712C166.409 54.584 166.383 54.4987 166.329 54.456C166.287 54.4133 166.223 54.392 166.137 54.392H156.713C156.585 54.392 156.473 54.3547 156.377 54.28C156.292 54.1947 156.249 54.0773 156.249 53.928C156.249 53.7787 156.292 53.6667 156.377 53.592C156.473 53.5067 156.585 53.464 156.713 53.464H166.297C166.553 53.464 166.756 53.4907 166.905 53.544C167.065 53.5867 167.183 53.656 167.257 53.752C167.343 53.8373 167.396 53.944 167.417 54.072C167.439 54.1893 167.449 54.3227 167.449 54.472V55.72C167.449 55.8693 167.439 56.008 167.417 56.136C167.396 56.2533 167.343 56.3547 167.257 56.44C167.183 56.5253 167.065 56.5947 166.905 56.648C166.756 56.6907 166.553 56.712 166.297 56.712H157.561C157.476 56.712 157.407 56.7333 157.353 56.776C157.311 56.8187 157.289 56.904 157.289 57.032V57.864ZM159.785 46.904C159.785 47.448 159.844 47.928 159.961 48.344C160.089 48.7493 160.276 49.112 160.521 49.432C160.777 49.7413 161.097 50.008 161.481 50.232C161.876 50.456 162.34 50.648 162.873 50.808C163.023 50.8613 163.135 50.9467 163.209 51.064C163.295 51.1707 163.327 51.2987 163.305 51.448C163.273 51.5973 163.188 51.7093 163.049 51.784C162.921 51.8587 162.761 51.8693 162.569 51.816C162.196 51.7413 161.839 51.6187 161.497 51.448C161.167 51.2773 160.857 51.0853 160.569 50.872C160.292 50.648 160.047 50.4133 159.833 50.168C159.62 49.9227 159.455 49.6933 159.337 49.48C159.071 50.0453 158.639 50.536 158.041 50.952C157.455 51.3573 156.772 51.6933 155.993 51.96C155.801 52.024 155.641 52.024 155.513 51.96C155.385 51.896 155.3 51.7893 155.257 51.64C155.215 51.4907 155.225 51.3573 155.289 51.24C155.364 51.112 155.476 51.0213 155.625 50.968C156.127 50.776 156.569 50.5733 156.953 50.36C157.348 50.136 157.673 49.8747 157.929 49.576C158.196 49.2773 158.399 48.9307 158.537 48.536C158.676 48.1307 158.745 47.6507 158.745 47.096V46.2C158.745 46.04 158.793 45.9227 158.889 45.848C158.985 45.7627 159.108 45.72 159.257 45.72C159.407 45.72 159.529 45.7627 159.625 45.848C159.732 45.9227 159.785 46.04 159.785 46.2V46.904ZM170.025 49.016C170.025 49.1653 169.977 49.2827 169.881 49.368C169.796 49.4427 169.689 49.48 169.561 49.48H167.433V51.96C167.433 52.12 167.38 52.2427 167.273 52.328C167.177 52.4027 167.055 52.44 166.905 52.44C166.756 52.44 166.633 52.4027 166.537 52.328C166.441 52.2427 166.393 52.12 166.393 51.96V46.12C166.393 45.96 166.441 45.8427 166.537 45.768C166.633 45.6827 166.756 45.64 166.905 45.64C167.055 45.64 167.177 45.6827 167.273 45.768C167.38 45.8427 167.433 45.96 167.433 46.12V48.552H169.561C169.689 48.552 169.796 48.5947 169.881 48.68C169.977 48.7547 170.025 48.8667 170.025 49.016ZM178.349 46.296C178.349 46.4453 178.301 46.5627 178.205 46.648C178.119 46.7227 178.013 46.76 177.885 46.76H175.181V52.76C175.181 53.3147 175.266 53.8373 175.437 54.328C175.607 54.808 175.842 55.2667 176.141 55.704C176.439 56.1307 176.791 56.5413 177.197 56.936C177.602 57.3307 178.034 57.72 178.493 58.104C178.621 58.2107 178.69 58.3333 178.701 58.472C178.711 58.6107 178.674 58.7387 178.589 58.856C178.503 58.9733 178.375 59.0373 178.205 59.048C178.045 59.0587 177.89 59 177.741 58.872C177.069 58.3067 176.466 57.704 175.933 57.064C175.41 56.424 174.994 55.768 174.685 55.096C174.407 55.768 174.013 56.4347 173.501 57.096C172.999 57.768 172.407 58.392 171.725 58.968C171.575 59.1067 171.415 59.1653 171.245 59.144C171.085 59.1227 170.962 59.0533 170.877 58.936C170.791 58.8187 170.759 58.6907 170.781 58.552C170.813 58.4133 170.887 58.2853 171.005 58.168C171.431 57.8053 171.831 57.4213 172.205 57.016C172.589 56.6213 172.925 56.2 173.213 55.752C173.501 55.304 173.725 54.8347 173.885 54.344C174.055 53.8427 174.141 53.3147 174.141 52.76V46.76H171.437C171.309 46.76 171.197 46.7227 171.101 46.648C171.015 46.5627 170.973 46.4453 170.973 46.296C170.973 46.1467 171.015 46.0347 171.101 45.96C171.197 45.8747 171.309 45.832 171.437 45.832H177.885C178.013 45.832 178.119 45.8747 178.205 45.96C178.301 46.0347 178.349 46.1467 178.349 46.296ZM185.389 52.056C185.389 52.2053 185.341 52.3227 185.245 52.408C185.159 52.4827 185.053 52.52 184.925 52.52H182.573V58.904C182.573 59.064 182.519 59.1813 182.413 59.256C182.317 59.3413 182.194 59.384 182.045 59.384C181.895 59.384 181.773 59.3413 181.677 59.256C181.581 59.1813 181.533 59.064 181.533 58.904V46.12C181.533 45.96 181.581 45.8427 181.677 45.768C181.773 45.6827 181.895 45.64 182.045 45.64C182.194 45.64 182.317 45.6827 182.413 45.768C182.519 45.8427 182.573 45.96 182.573 46.12V51.592H184.925C185.053 51.592 185.159 51.6347 185.245 51.72C185.341 51.7947 185.389 51.9067 185.389 52.056Z" fill="#72A8FE"/>
</svg>
