<svg width="40" height="40" viewBox="0 0 40 40" fill="none" xmlns="http://www.w3.org/2000/svg">
<path d="M18.3333 28.3333C12.5731 28.3333 8.33333 24.0936 8.33333 18.3333C8.33333 12.5731 12.5731 8.33333 18.3333 8.33333C24.0936 8.33333 28.3333 12.5731 28.3333 18.3333C28.3333 24.0936 24.0936 28.3333 18.3333 28.3333ZM18.3333 31.6667C25.731 31.6667 31.6667 25.731 31.6667 18.3333C31.6667 10.9357 25.731 5 18.3333 5C10.9357 5 5 10.9357 5 18.3333C5 25.731 10.9357 31.6667 18.3333 31.6667ZM34.5029 32.1637L27.8363 25.4971C27.5439 25.1754 27.1345 25 26.6667 25C25.7602 25 25 25.7602 25 26.6667C25 27.1345 25.1754 27.5439 25.4971 27.8363L32.1637 34.5029C32.4561 34.8246 32.8655 35 33.3333 35C34.2398 35 35 34.2398 35 33.3333C35 32.8655 34.8246 32.4561 34.5029 32.1637Z" fill="#666666"/>
</svg>
