<svg width="281" height="281" viewBox="0 0 281 281" fill="none" xmlns="http://www.w3.org/2000/svg">
<path d="M22.8965 122.807V31.4266C22.8965 23.8835 32.1246 20.2281 37.2899 25.7252L123.156 117.106C128.151 122.421 124.382 131.133 117.089 131.133H31.2224C26.6241 131.133 22.8965 127.405 22.8965 122.807Z" fill="#72A8FE"/>
<path d="M125.93 122.807V31.4266C125.93 23.8835 116.701 20.2281 111.536 25.7252L25.0107 117.808C20.2661 122.856 23.8463 131.133 30.775 131.133H117.604C122.202 131.133 125.93 127.405 125.93 122.807Z" fill="#0361FB"/>
<path d="M207.669 28.1316C204.522 22.3064 196.164 22.3064 193.017 28.1316L144.013 118.85C141.017 124.398 145.034 131.133 151.339 131.133H249.347C255.652 131.133 259.669 124.398 256.673 118.85L207.669 28.1316Z" fill="#72A8FE"/>
<path d="M207.669 155.102C204.522 149.277 196.164 149.277 193.017 155.102L144.013 245.821C141.017 251.368 145.034 258.104 151.339 258.104H249.347C255.652 258.104 259.669 251.368 256.673 245.821L207.669 155.102Z" fill="#0361FB"/>
<path d="M117.604 150.907H31.2224C26.6241 150.907 22.8965 154.635 22.8965 159.233V172.763C22.8965 177.361 26.6241 181.089 31.2224 181.089H117.604C122.202 181.089 125.93 177.361 125.93 172.763V159.233C125.93 154.635 122.202 150.907 117.604 150.907Z" fill="#72A8FE"/>
<path d="M117.604 227.922H31.2224C26.6241 227.922 22.8965 231.65 22.8965 236.248V249.778C22.8965 254.376 26.6241 258.104 31.2224 258.104H117.604C122.202 258.104 125.93 254.376 125.93 249.778V236.248C125.93 231.65 122.202 227.922 117.604 227.922Z" fill="#72A8FE"/>
</svg>
