<svg width="16" height="16" viewBox="0 0 16 16" fill="none" xmlns="http://www.w3.org/2000/svg">
<path d="M3.99984 14V4C3.99984 3.1579 4.49107 2.66667 5.33317 2.66667H10.6665C11.5086 2.66667 11.9998 3.1579 11.9998 4V14C11.9998 14.3626 12.3039 14.6667 12.6665 14.6667C13.0291 14.6667 13.3332 14.3626 13.3332 14V4C13.3332 2.50293 12.1636 1.33334 10.6665 1.33334H5.33317C3.83609 1.33334 2.6665 2.50293 2.6665 4V14C2.6665 14.3626 2.9706 14.6667 3.33317 14.6667C3.69574 14.6667 3.99984 14.3626 3.99984 14ZM12.994 13.4269L7.99984 10.5614L3.00569 13.4269C2.80685 13.5322 2.6665 13.7544 2.6665 14C2.6665 14.3626 2.9706 14.6667 3.33317 14.6667C3.45013 14.6667 3.56709 14.6316 3.66066 14.5731L7.99984 12.1053L12.339 14.5731C12.4326 14.6316 12.5495 14.6667 12.6665 14.6667C13.0291 14.6667 13.3332 14.3626 13.3332 14C13.3332 13.7544 13.1928 13.5322 12.994 13.4269ZM3.33317 4V14L7.99984 11.3333L12.6665 14V4C12.6665 2.8772 11.7893 2 10.6665 2H5.33317C4.21036 2 3.33317 2.8772 3.33317 4Z" fill="#0361FB"/>
</svg>
