<svg width="83" height="32" viewBox="0 0 83 32" fill="none" xmlns="http://www.w3.org/2000/svg">
<path d="M44.096 15.848H41.2V14.024H44.096V15.848ZM46.176 10.584H44.096V12.408H41.2V10.584H39.12V17.496H46.176V10.584ZM45.456 22.76C43.584 22.76 42.576 22.36 42.576 21.528C42.576 20.696 43.584 20.296 45.456 20.296C47.344 20.296 48.352 20.696 48.352 21.528C48.352 22.36 47.344 22.76 45.456 22.76ZM45.456 18.648C42.4 18.648 40.48 19.72 40.48 21.528C40.48 23.32 42.4 24.392 45.456 24.392C48.528 24.392 50.448 23.32 50.448 21.528C50.448 19.72 48.528 18.648 45.456 18.648ZM50.288 13.08V9.656H48.176V18.328H50.288V14.808H52.24V13.08H50.288ZM58.9188 15.816H56.1188V12.376H58.9188V15.816ZM63.6388 13.448V14.712H60.9828V13.448H63.6388ZM60.9828 16.392H63.6388V18.28H65.7508V9.64H63.6388V11.768H60.9828V10.696H54.0388V17.48H60.9828V16.392ZM60.7588 22.76C58.8388 22.76 57.8308 22.36 57.8308 21.512C57.8308 20.664 58.8388 20.264 60.7588 20.264C62.6948 20.264 63.7028 20.664 63.7028 21.512C63.7028 22.36 62.6948 22.76 60.7588 22.76ZM60.7588 18.648C57.6388 18.648 55.7188 19.704 55.7188 21.512C55.7188 23.32 57.6388 24.376 60.7588 24.376C63.8948 24.376 65.8148 23.32 65.8148 21.512C65.8148 19.704 63.8948 18.648 60.7588 18.648ZM69.6455 21.704H77.8695V24.328H79.9815V20.04H69.6455V21.704ZM75.9015 17.528V16.472H80.1895V14.872H71.9175V13.912H79.8855V9.928H69.8055V11.528H77.8055V12.424H69.8375V16.472H73.7895V17.528H68.1735V19.208H81.5175V17.528H75.9015Z" fill="#999999"/>
<path d="M8.93566 11.0641L23.345 25.4501L27.3216 26.4559C26.7602 27.3448 26.5965 27.8127 26.6199 28.0466L25.4503 23.3448L11.0643 8.93548C10.807 8.70156 10.6667 8.37407 10.6667 7.9998C10.6667 7.27466 11.2748 6.66647 12 6.66647C12.3743 6.66647 12.7017 6.80682 12.9357 7.06413L27.883 21.9881L29.2398 27.4852C29.4503 28.5846 28.5848 29.4501 27.4854 29.2396L21.9883 27.8828L7.06431 12.9355C6.807 12.7016 6.66665 12.3741 6.66665 11.9998C6.66665 11.2747 7.27484 10.6665 7.99999 10.6665C8.37426 10.6665 8.70174 10.8068 8.93566 11.0641ZM7.06431 12.9355L5.07601 10.9472C3.43858 9.30975 3.3918 6.68986 5.05262 5.05243C6.69005 3.39162 9.30993 3.4384 10.9474 5.07583L12.9357 7.06413C13.193 7.29805 13.3333 7.62553 13.3333 7.9998C13.3333 8.72495 12.7251 9.33314 12 9.33314C11.6257 9.33314 11.2982 9.19278 11.0643 8.93548L9.07601 6.94717C8.32748 6.22202 7.64911 6.19863 6.92396 6.92378C6.19881 7.64893 6.22221 8.32729 6.94735 9.07583L8.93566 11.0641C9.19297 11.298 9.33332 11.6255 9.33332 11.9998C9.33332 12.7249 8.72513 13.3331 7.99999 13.3331C7.62572 13.3331 7.29823 13.1928 7.06431 12.9355ZM7.06431 11.0641L11.0643 7.06413C11.2982 6.80682 11.6257 6.66647 12 6.66647C12.7251 6.66647 13.3333 7.27466 13.3333 7.9998C13.3333 8.37407 13.193 8.70156 12.9357 8.93548L8.93566 12.9355C8.70174 13.1928 8.37426 13.3331 7.99999 13.3331C7.27484 13.3331 6.66665 12.7249 6.66665 11.9998C6.66665 11.6255 6.807 11.298 7.06431 11.0641Z" fill="#999999"/>
</svg>
