<svg width="68" height="32" viewBox="0 0 68 32" fill="none" xmlns="http://www.w3.org/2000/svg">
<path d="M39.552 10.488V12.168H44.032C43.696 14.12 41.92 15.72 38.752 16.584L39.584 18.216C43.872 17.032 46.272 14.376 46.272 10.488H39.552ZM43.392 20.136H48.928V22.552H43.392V20.136ZM41.312 24.2H51.008V18.472H41.312V24.2ZM48.896 9.656V13.128H46.352V14.84H48.896V17.864H51.008V9.656H48.896ZM60.8548 16.232C58.9028 15.416 58.1188 13.8 58.1188 12.168V10.456H56.0868V12.168C56.0868 13.848 55.2868 15.672 53.2228 16.584L54.3428 18.232C55.7028 17.64 56.5988 16.6 57.1428 15.352C57.6548 16.44 58.5028 17.32 59.7348 17.832L60.8548 16.232ZM55.8468 20.904H63.8788V24.392H65.9908V19.24H55.8468V20.904ZM63.9908 9.64V13.224H62.8388V9.864H60.8708V18.504H62.8388V14.92H63.9908V18.584H65.9908V9.64H63.9908Z" fill="#999999"/>
<path d="M14.6667 22.6667C10.0585 22.6667 6.66667 19.2749 6.66667 14.6667C6.66667 10.0585 10.0585 6.66667 14.6667 6.66667C19.2749 6.66667 22.6667 10.0585 22.6667 14.6667C22.6667 19.2749 19.2749 22.6667 14.6667 22.6667ZM14.6667 25.3333C20.5848 25.3333 25.3333 20.5848 25.3333 14.6667C25.3333 8.74854 20.5848 4 14.6667 4C8.74854 4 4 8.74854 4 14.6667C4 20.5848 8.74854 25.3333 14.6667 25.3333ZM27.6023 25.731L22.269 20.3977C22.0351 20.1404 21.7076 20 21.3333 20C20.6082 20 20 20.6082 20 21.3333C20 21.7076 20.1404 22.0351 20.3977 22.269L25.731 27.6023C25.9649 27.8596 26.2924 28 26.6667 28C27.3918 28 28 27.3918 28 26.6667C28 26.2924 27.8596 25.9649 27.6023 25.731Z" fill="#999999"/>
</svg>
