<svg width="30" height="30" viewBox="0 0 30 30" fill="none" xmlns="http://www.w3.org/2000/svg">
<path d="M14.9967 10.6231C12.5866 10.6231 10.6199 12.5899 10.6199 15C10.6199 17.4101 12.5866 19.3769 14.9967 19.3769C17.4068 19.3769 19.3736 17.4101 19.3736 15C19.3736 12.5899 17.4068 10.6231 14.9967 10.6231ZM28.124 15C28.124 13.1875 28.1404 11.3915 28.0387 9.58228C27.9369 7.48086 27.4575 5.61585 25.9208 4.07918C24.3809 2.53924 22.5191 2.06313 20.4177 1.96135C18.6052 1.85956 16.8092 1.87598 15 1.87598C13.1875 1.87598 11.3915 1.85956 9.58228 1.96135C7.48086 2.06313 5.61585 2.54252 4.07918 4.07918C2.53924 5.61913 2.06313 7.48086 1.96135 9.58228C1.85956 11.3948 1.87598 13.1908 1.87598 15C1.87598 16.8092 1.85956 18.6085 1.96135 20.4177C2.06313 22.5191 2.54252 24.3842 4.07918 25.9208C5.61913 27.4608 7.48086 27.9369 9.58228 28.0387C11.3948 28.1404 13.1908 28.124 15 28.124C16.8125 28.124 18.6085 28.1404 20.4177 28.0387C22.5191 27.9369 24.3842 27.4575 25.9208 25.9208C27.4608 24.3809 27.9369 22.5191 28.0387 20.4177C28.1437 18.6085 28.124 16.8125 28.124 15ZM14.9967 21.7344C11.27 21.7344 8.26232 18.7267 8.26232 15C8.26232 11.2733 11.27 8.26561 14.9967 8.26561C18.7235 8.26561 21.7311 11.2733 21.7311 15C21.7311 18.7267 18.7235 21.7344 14.9967 21.7344ZM22.0069 9.56258C21.1368 9.56258 20.4341 8.85991 20.4341 7.9898C20.4341 7.11968 21.1368 6.41701 22.0069 6.41701C22.877 6.41701 23.5797 7.11968 23.5797 7.9898C23.58 8.19641 23.5395 8.40104 23.4605 8.59198C23.3816 8.78291 23.2657 8.9564 23.1196 9.1025C22.9735 9.2486 22.8 9.36444 22.6091 9.44338C22.4182 9.52233 22.2135 9.56284 22.0069 9.56258Z" fill="#999999"/>
</svg>
