<svg width="228" height="48" viewBox="0 0 228 48" fill="none" xmlns="http://www.w3.org/2000/svg">
<path d="M51.1518 20.516H48.5118V17.792H51.1518V20.516ZM52.3638 16.796H47.2878V21.5H52.3638V16.796ZM55.5318 23.792V22.808H48.3678V23.792H51.2838C51.0918 24.8 49.8198 25.7 47.9238 25.952L48.3798 26.888C50.0478 26.648 51.3318 25.928 51.9558 24.92C52.5798 25.916 53.8758 26.672 55.5198 26.9L55.9638 25.976C54.1158 25.7 52.8078 24.776 52.6278 23.792H55.5318ZM55.3758 18.572V16.076H54.1398V22.22H55.3758V19.592H56.9118V18.572H55.3758ZM61.9988 18.188H64.4108V17.168H58.3388V18.188H60.7508V19.22C60.7508 21.08 59.6348 23.096 57.9548 23.876L58.6628 24.86C59.9348 24.248 60.9068 22.964 61.3868 21.452C61.8908 22.856 62.8628 24.032 64.1228 24.584L64.8068 23.612C63.1148 22.892 61.9988 21.02 61.9988 19.22V18.188ZM65.6708 16.088V26.924H66.9188V16.088H65.6708ZM73.1652 19.184C73.1652 18.284 73.8732 17.672 74.8092 17.672C75.7452 17.672 76.4532 18.284 76.4532 19.184C76.4532 20.072 75.7452 20.684 74.8092 20.684C73.8732 20.684 73.1652 20.072 73.1652 19.184ZM77.6532 19.184C77.6532 17.708 76.4412 16.664 74.8092 16.664C73.1772 16.664 71.9652 17.708 71.9652 19.184C71.9652 20.648 73.1772 21.704 74.8092 21.704C76.4412 21.704 77.6532 20.648 77.6532 19.184ZM74.0772 22.568H72.8772V26.648H73.4412C74.3172 26.648 75.2532 26.6 76.2372 26.264L76.0332 25.28C75.3852 25.496 74.7012 25.592 74.0772 25.628V22.568ZM78.5652 26.072C78.0132 26.072 77.6052 25.82 77.6052 25.4C77.6052 24.968 78.0132 24.728 78.5652 24.728C79.1052 24.728 79.5132 24.968 79.5132 25.4C79.5132 25.82 79.1052 26.072 78.5652 26.072ZM78.5652 23.864C77.3652 23.864 76.5132 24.464 76.5132 25.4C76.5132 26.336 77.3652 26.936 78.5652 26.936C79.7532 26.936 80.6052 26.336 80.6052 25.4C80.6052 24.464 79.7532 23.864 78.5652 23.864ZM79.1652 21.74H77.9652V22.628H75.8412V23.528H81.2772V22.628H79.1652V21.74ZM80.2932 18.44V16.088H79.0572V21.452H80.2932V19.46H81.8292V18.44H80.2932ZM91.6203 19.196H85.4163V16.472H84.1803V20.204H91.6203V19.196ZM85.3443 23.492H84.1083V26.684H91.6803V25.688H85.3443V23.492ZM82.9083 21.5V22.496H92.7483V21.5H82.9083ZM102.571 18.812V19.82H104.491V22.544H105.727V16.088H104.491V18.812H102.571ZM103.195 21.224C101.575 20.66 100.651 19.316 100.651 17.96V17.816H102.907V16.82H97.1106V17.816H99.4026V17.972C99.4026 19.46 98.4306 20.9 96.7506 21.5L97.3866 22.484C98.6706 22.028 99.5826 21.068 100.063 19.88C100.519 20.924 101.383 21.776 102.583 22.196L103.195 21.224ZM102.127 25.976C100.579 25.976 99.7026 25.592 99.7026 24.884C99.7026 24.176 100.579 23.792 102.127 23.792C103.651 23.792 104.539 24.176 104.539 24.884C104.539 25.592 103.651 25.976 102.127 25.976ZM102.127 22.832C99.8586 22.832 98.4666 23.6 98.4666 24.884C98.4666 26.18 99.8586 26.936 102.127 26.936C104.383 26.936 105.775 26.18 105.775 24.884C105.775 23.6 104.383 22.832 102.127 22.832ZM113.202 21.332C111.846 20.84 111.138 19.7 111.138 18.488V18.404H112.914V17.42H111.138V16.196H109.95V17.42H108.126V18.404H109.95V18.488C109.95 19.76 109.254 20.984 107.874 21.524L108.462 22.448C109.494 22.028 110.19 21.248 110.562 20.288C110.958 21.176 111.642 21.872 112.638 22.256L113.202 21.332ZM109.662 24.26H115.77V26.936H117.006V23.264H109.662V24.26ZM115.83 16.1V18.908H114.714V16.28H113.55V22.676H114.714V19.916H115.83V22.736H117.006V16.1H115.83ZM126.593 16.076V26.948H127.841V16.076H126.593ZM122.069 16.88C120.461 16.88 119.285 18.368 119.285 20.696C119.285 23.048 120.461 24.524 122.069 24.524C123.689 24.524 124.865 23.048 124.865 20.696C124.865 18.368 123.689 16.88 122.069 16.88ZM122.069 17.996C123.017 17.996 123.677 19.016 123.677 20.696C123.677 22.4 123.017 23.42 122.069 23.42C121.133 23.42 120.473 22.4 120.473 20.696C120.473 19.016 121.133 17.996 122.069 17.996ZM141.683 16.1H140.447V22.256H141.683V16.1ZM135.839 17.708C136.799 17.708 137.507 18.32 137.507 19.244C137.507 20.18 136.799 20.78 135.839 20.78C134.879 20.78 134.171 20.18 134.171 19.244C134.171 18.32 134.879 17.708 135.839 17.708ZM135.839 21.8C137.495 21.8 138.707 20.756 138.707 19.244C138.707 17.732 137.495 16.688 135.839 16.688C134.183 16.688 132.959 17.732 132.959 19.244C132.959 20.756 134.183 21.8 135.839 21.8ZM140.531 22.724H139.319V23.204C139.319 24.02 138.863 25.04 137.903 25.688C136.955 25.088 136.535 24.116 136.535 23.204V22.724H135.335V23.204C135.335 24.26 134.615 25.376 133.235 25.868L133.835 26.78C134.843 26.408 135.539 25.712 135.935 24.86C136.271 25.736 136.907 26.48 137.927 26.876C138.911 26.468 139.559 25.688 139.907 24.836C140.279 25.712 140.987 26.408 142.031 26.78L142.643 25.868C141.239 25.412 140.531 24.32 140.531 23.204V22.724ZM145.51 18.116H149.314V17.108H144.274V24.272H145.162C147.118 24.272 148.582 24.212 150.226 23.912L150.094 22.892C148.582 23.156 147.262 23.228 145.51 23.24V18.116ZM153.922 20.252H152.23V16.076H150.994V26.936H152.23V21.272H153.922V20.252ZM159.213 21.188H156.609V17.972H159.213V21.188ZM162.669 18.908V20.228H160.413V18.908H162.669ZM160.413 21.224H162.669V23.996H163.905V16.088H162.669V17.9H160.413V16.988H155.397V22.172H160.413V21.224ZM158.097 25.712V23.276H156.849V26.72H164.157V25.712H158.097ZM170.092 18.872C170.092 18.008 170.788 17.444 171.748 17.444C172.696 17.444 173.38 18.008 173.38 18.872C173.38 19.736 172.696 20.312 171.748 20.312C170.788 20.312 170.092 19.736 170.092 18.872ZM174.58 18.872C174.58 17.444 173.38 16.436 171.748 16.436C170.104 16.436 168.892 17.444 168.892 18.872C168.892 20.3 170.104 21.308 171.748 21.308C173.38 21.308 174.58 20.3 174.58 18.872ZM171.46 24.824H177.22V22.028H170.224V23H175.996V23.924H170.248V26.792H177.58V25.808H171.46V24.824ZM177.22 18.308V16.076H175.984V21.56H177.22V19.328H178.744V18.308H177.22ZM181.443 21.056H184.983V17.024H180.207V18.02H183.771V20.06H180.231V24.464H181.059C182.739 24.464 184.131 24.428 185.775 24.164L185.679 23.144C184.191 23.372 182.919 23.432 181.443 23.444V21.056ZM187.587 16.064V18.476H185.607V19.484H187.587V21.428H185.547V22.436H187.587V26.936H188.823V16.064H187.587ZM191.918 21.392C193.706 21.128 195.17 20.24 195.83 19.04C196.49 20.24 197.966 21.128 199.754 21.392L200.198 20.42C198.134 20.144 196.61 18.956 196.538 17.696H199.814V16.7H191.834V17.696H195.134C195.062 18.956 193.538 20.144 191.474 20.42L191.918 21.392ZM200.738 22.184H190.934V23.18H195.182V26.936H196.418V23.18H200.726L200.738 22.184ZM205.345 17.084H204.145V19.04C204.145 20.888 203.401 22.832 201.865 23.744L202.621 24.68C203.665 24.044 204.373 22.904 204.757 21.572C205.129 22.784 205.777 23.84 206.761 24.44L207.457 23.48C206.005 22.568 205.345 20.732 205.345 18.98V17.084ZM207.889 19.88H206.293V20.888H207.889V26.42H209.053V16.292H207.889V19.88ZM210.097 16.088V26.924H211.273V16.088H210.097ZM216.636 22.232C217.056 22.328 217.524 22.376 218.004 22.376C218.484 22.376 218.952 22.328 219.372 22.22V24.584H216.636V22.232ZM218.004 17.684C219.636 17.684 220.776 18.404 220.776 19.544C220.776 20.696 219.636 21.416 218.004 21.416C216.36 21.416 215.22 20.696 215.22 19.544C215.22 18.404 216.36 17.684 218.004 17.684ZM220.608 24.584V21.764C221.472 21.272 221.988 20.504 221.988 19.544C221.988 17.816 220.308 16.712 218.004 16.712C215.688 16.712 214.02 17.816 214.02 19.544C214.02 20.504 214.536 21.284 215.4 21.764V24.584H213.108V25.592H222.924V24.584H220.608ZM225.179 23.18H226.103L226.295 18.38L226.343 16.952H224.951L224.987 18.38L225.179 23.18ZM225.635 26.156C226.163 26.156 226.571 25.76 226.571 25.196C226.571 24.62 226.163 24.212 225.635 24.212C225.119 24.212 224.723 24.62 224.723 25.196C224.723 25.76 225.119 26.156 225.635 26.156Z" fill="#ED6451"/>
<g filter="url(#filter0_d_1288_2283)">
<circle cx="24" cy="20" r="10" fill="#F8FAFF"/>
</g>
<path d="M24 28C19.4561 28 16 24.5439 16 20C16 15.4561 19.4561 12 24 12C28.5439 12 32 15.4561 32 20C32 24.5439 28.5439 28 24 28ZM24 30C29.5263 30 34 25.5263 34 20C34 14.4737 29.5263 10 24 10C18.4737 10 14 14.4737 14 20C14 25.5263 18.4737 30 24 30ZM23 15V21.3333C23 21.8772 23.4561 22.3333 24 22.3333C24.5439 22.3333 25 21.8772 25 21.3333V15C25 14.4561 24.5439 14 24 14C23.4561 14 23 14.4561 23 15ZM24 26C24.7368 26 25.3333 25.4035 25.3333 24.6667C25.3333 23.9298 24.7368 23.3333 24 23.3333C23.2632 23.3333 22.6667 23.9298 22.6667 24.6667C22.6667 25.4035 23.2632 26 24 26Z" fill="#ED6451"/>
<defs>
<filter id="filter0_d_1288_2283" x="0" y="0" width="48" height="48" filterUnits="userSpaceOnUse" color-interpolation-filters="sRGB">
<feFlood flood-opacity="0" result="BackgroundImageFix"/>
<feColorMatrix in="SourceAlpha" type="matrix" values="0 0 0 0 0 0 0 0 0 0 0 0 0 0 0 0 0 0 127 0" result="hardAlpha"/>
<feOffset dy="4"/>
<feGaussianBlur stdDeviation="7"/>
<feComposite in2="hardAlpha" operator="out"/>
<feColorMatrix type="matrix" values="0 0 0 0 0 0 0 0 0 0 0 0 0 0 0 0 0 0 0.1 0"/>
<feBlend mode="normal" in2="BackgroundImageFix" result="effect1_dropShadow_1288_2283"/>
<feBlend mode="normal" in="SourceGraphic" in2="effect1_dropShadow_1288_2283" result="shape"/>
</filter>
</defs>
</svg>
