<svg width="30" height="30" viewBox="0 0 30 30" fill="none" xmlns="http://www.w3.org/2000/svg">
<path d="M13.75 21.25C9.42982 21.25 6.25 18.0702 6.25 13.75C6.25 9.42982 9.42982 6.25 13.75 6.25C18.0702 6.25 21.25 9.42982 21.25 13.75C21.25 18.0702 18.0702 21.25 13.75 21.25ZM13.75 23.75C19.2982 23.75 23.75 19.2982 23.75 13.75C23.75 8.20175 19.2982 3.75 13.75 3.75C8.20175 3.75 3.75 8.20175 3.75 13.75C3.75 19.2982 8.20175 23.75 13.75 23.75ZM25.8772 24.1228L20.8772 19.1228C20.6579 18.8816 20.3509 18.75 20 18.75C19.3202 18.75 18.75 19.3202 18.75 20C18.75 20.3509 18.8816 20.6579 19.1228 20.8772L24.1228 25.8772C24.3421 26.1184 24.6491 26.25 25 26.25C25.6798 26.25 26.25 25.6798 26.25 25C26.25 24.6491 26.1184 24.3421 25.8772 24.1228Z" fill="#666666"/>
</svg>
