<svg width="76" height="76" viewBox="0 0 76 76" fill="none" xmlns="http://www.w3.org/2000/svg">
<g filter="url(#filter0_d_1544_1801)">
<circle cx="38" cy="34" r="24" fill="#0361FB"/>
</g>
<path d="M32 31C30.3333 31 29 32.3333 29 34C29 35.6667 30.3333 37 32 37C33.6667 37 35 35.6667 35 34C35 32.3333 33.6667 31 32 31ZM43 25C41.3333 25 40 26.3333 40 28C40 29.6667 41.3333 31 43 31C44.6667 31 46 29.6667 46 28C46 26.3333 44.6667 25 43 25ZM43 37C41.3333 37 40 38.3333 40 40C40 41.6667 41.3333 43 43 43C44.6667 43 46 41.6667 46 40C46 38.3333 44.6667 37 43 37ZM41.7193 38.1579L34.2281 34.0877L33.2807 35.8421L40.7719 39.9123L41.7193 38.1579ZM34.2281 33.9123L41.7193 29.8421L40.7719 28.0877L33.2807 32.1579L34.2281 33.9123Z" fill="white"/>
<defs>
<filter id="filter0_d_1544_1801" x="0" y="0" width="76" height="76" filterUnits="userSpaceOnUse" color-interpolation-filters="sRGB">
<feFlood flood-opacity="0" result="BackgroundImageFix"/>
<feColorMatrix in="SourceAlpha" type="matrix" values="0 0 0 0 0 0 0 0 0 0 0 0 0 0 0 0 0 0 127 0" result="hardAlpha"/>
<feOffset dy="4"/>
<feGaussianBlur stdDeviation="7"/>
<feComposite in2="hardAlpha" operator="out"/>
<feColorMatrix type="matrix" values="0 0 0 0 0 0 0 0 0 0 0 0 0 0 0 0 0 0 0.1 0"/>
<feBlend mode="normal" in2="BackgroundImageFix" result="effect1_dropShadow_1544_1801"/>
<feBlend mode="normal" in="SourceGraphic" in2="effect1_dropShadow_1544_1801" result="shape"/>
</filter>
</defs>
</svg>
