<svg width="78" height="78" viewBox="0 0 78 78" fill="none" xmlns="http://www.w3.org/2000/svg">
<g filter="url(#filter0_d_1815_4991)">
<circle cx="39" cy="37" r="24" fill="white"/>
</g>
<path d="M33 36C33.6842 36 34 36.3158 34 37C34 37.6842 33.6842 38 33 38C32.3158 38 32 37.6842 32 37C32 36.3158 32.3158 36 33 36ZM33 34C31.3333 34 30 35.3333 30 37C30 38.6667 31.3333 40 33 40C34.6667 40 36 38.6667 36 37C36 35.3333 34.6667 34 33 34ZM44 30C44.6842 30 45 30.3158 45 31C45 31.6842 44.6842 32 44 32C43.3158 32 43 31.6842 43 31C43 30.3158 43.3158 30 44 30ZM44 28C42.3333 28 41 29.3333 41 31C41 32.6667 42.3333 34 44 34C45.6667 34 47 32.6667 47 31C47 29.3333 45.6667 28 44 28ZM44 42C44.6842 42 45 42.3158 45 43C45 43.6842 44.6842 44 44 44C43.3158 44 43 43.6842 43 43C43 42.3158 43.3158 42 44 42ZM44 40C42.3333 40 41 41.3333 41 43C41 44.6667 42.3333 46 44 46C45.6667 46 47 44.6667 47 43C47 41.3333 45.6667 40 44 40ZM42.7193 41.1579L35.2281 37.0877L34.2807 38.8421L41.7719 42.9123L42.7193 41.1579ZM35.2281 36.9123L42.7193 32.8421L41.7719 31.0877L34.2807 35.1579L35.2281 36.9123Z" fill="#666666"/>
<defs>
<filter id="filter0_d_1815_4991" x="0" y="0" width="78" height="78" filterUnits="userSpaceOnUse" color-interpolation-filters="sRGB">
<feFlood flood-opacity="0" result="BackgroundImageFix"/>
<feColorMatrix in="SourceAlpha" type="matrix" values="0 0 0 0 0 0 0 0 0 0 0 0 0 0 0 0 0 0 127 0" result="hardAlpha"/>
<feOffset dy="2"/>
<feGaussianBlur stdDeviation="7.5"/>
<feComposite in2="hardAlpha" operator="out"/>
<feColorMatrix type="matrix" values="0 0 0 0 0 0 0 0 0 0 0 0 0 0 0 0 0 0 0.05 0"/>
<feBlend mode="normal" in2="BackgroundImageFix" result="effect1_dropShadow_1815_4991"/>
<feBlend mode="normal" in="SourceGraphic" in2="effect1_dropShadow_1815_4991" result="shape"/>
</filter>
</defs>
</svg>
