<svg width="60" height="60" viewBox="0 0 60 60" fill="none" xmlns="http://www.w3.org/2000/svg">
<g filter="url(#filter0_d_1869_5190)">
<circle cx="30" cy="28" r="15" fill="#CCCCCC"/>
</g>
<path d="M28.3772 35.1272L34.6272 28.8772C34.8684 28.6579 35 28.3509 35 28C35 27.3202 34.4298 26.75 33.75 26.75C33.3991 26.75 33.0921 26.8816 32.8728 27.1228L26.6228 33.3728C26.3816 33.5921 26.25 33.8991 26.25 34.25C26.25 34.9298 26.8202 35.5 27.5 35.5C27.8509 35.5 28.1579 35.3684 28.3772 35.1272ZM34.6272 27.1228L28.3772 20.8728C28.1579 20.6316 27.8509 20.5 27.5 20.5C26.8202 20.5 26.25 21.0702 26.25 21.75C26.25 22.1009 26.3816 22.4079 26.6228 22.6272L32.8728 28.8772C33.0921 29.1184 33.3991 29.25 33.75 29.25C34.4298 29.25 35 28.6798 35 28C35 27.6491 34.8684 27.3421 34.6272 27.1228Z" fill="#F8FAFF"/>
<defs>
<filter id="filter0_d_1869_5190" x="0" y="0" width="60" height="60" filterUnits="userSpaceOnUse" color-interpolation-filters="sRGB">
<feFlood flood-opacity="0" result="BackgroundImageFix"/>
<feColorMatrix in="SourceAlpha" type="matrix" values="0 0 0 0 0 0 0 0 0 0 0 0 0 0 0 0 0 0 127 0" result="hardAlpha"/>
<feOffset dy="2"/>
<feGaussianBlur stdDeviation="7.5"/>
<feComposite in2="hardAlpha" operator="out"/>
<feColorMatrix type="matrix" values="0 0 0 0 0 0 0 0 0 0 0 0 0 0 0 0 0 0 0.05 0"/>
<feBlend mode="normal" in2="BackgroundImageFix" result="effect1_dropShadow_1869_5190"/>
<feBlend mode="normal" in="SourceGraphic" in2="effect1_dropShadow_1869_5190" result="shape"/>
</filter>
</defs>
</svg>
