<svg width="106" height="106" viewBox="0 0 106 106" fill="none" xmlns="http://www.w3.org/2000/svg">
<g filter="url(#filter0_d_2474_5279)">
<circle cx="53" cy="51" r="38" fill="white"/>
</g>
<path d="M43.0219 44.0556L51.7719 36.1389C52.0789 35.8333 52.5088 35.6667 53 35.6667C53.9518 35.6667 54.75 36.3889 54.75 37.25C54.75 37.6944 54.5658 38.0833 54.2281 38.3611L45.4781 46.2778C45.1711 46.5833 44.7412 46.75 44.25 46.75C43.2982 46.75 42.5 46.0278 42.5 45.1667C42.5 44.7222 42.6842 44.3333 43.0219 44.0556ZM54.2281 36.1389L62.9781 44.0556C63.3158 44.3333 63.5 44.7222 63.5 45.1667C63.5 46.0278 62.7018 46.75 61.75 46.75C61.2588 46.75 60.8289 46.5833 60.5219 46.2778L51.7719 38.3611C51.4342 38.0833 51.25 37.6944 51.25 37.25C51.25 36.3889 52.0482 35.6667 53 35.6667C53.4912 35.6667 53.9211 35.8333 54.2281 36.1389Z" fill="#72A8FE"/>
<path d="M42.332 69H44.404V60.362H47.33V58.64H39.406V60.362H42.332V69ZM52.6691 69.196C55.4131 69.196 57.2891 67.152 57.2891 63.778C57.2891 60.418 55.4131 58.458 52.6691 58.458C49.9111 58.458 48.0351 60.404 48.0351 63.778C48.0351 67.152 49.9111 69.196 52.6691 69.196ZM52.6691 67.404C51.1151 67.404 50.1491 65.99 50.1491 63.778C50.1491 61.566 51.1151 60.236 52.6691 60.236C54.2091 60.236 55.1891 61.566 55.1891 63.778C55.1891 65.99 54.2091 67.404 52.6691 67.404ZM59.3616 69H61.4336V65.318H62.8196C65.0456 65.318 66.8096 64.268 66.8096 61.902C66.8096 59.438 65.0456 58.64 62.7636 58.64H59.3616V69ZM61.4336 63.68V60.292H62.6096C64.0376 60.292 64.7936 60.684 64.7936 61.902C64.7936 63.078 64.1076 63.68 62.6796 63.68H61.4336Z" fill="#72A8FE"/>
<defs>
<filter id="filter0_d_2474_5279" x="0" y="0" width="106" height="106" filterUnits="userSpaceOnUse" color-interpolation-filters="sRGB">
<feFlood flood-opacity="0" result="BackgroundImageFix"/>
<feColorMatrix in="SourceAlpha" type="matrix" values="0 0 0 0 0 0 0 0 0 0 0 0 0 0 0 0 0 0 127 0" result="hardAlpha"/>
<feOffset dy="2"/>
<feGaussianBlur stdDeviation="7.5"/>
<feComposite in2="hardAlpha" operator="out"/>
<feColorMatrix type="matrix" values="0 0 0 0 0 0 0 0 0 0 0 0 0 0 0 0 0 0 0.05 0"/>
<feBlend mode="normal" in2="BackgroundImageFix" result="effect1_dropShadow_2474_5279"/>
<feBlend mode="normal" in="SourceGraphic" in2="effect1_dropShadow_2474_5279" result="shape"/>
</filter>
</defs>
</svg>
